<svg width="1920" height="949" viewBox="0 0 1920 949" fill="none" xmlns="http://www.w3.org/2000/svg">
<mask id="mask0_1_7940" style="mask-type:luminance" maskUnits="userSpaceOnUse" x="0" y="0" width="1920" height="949">
<path d="M0 949H1920V0H0V949Z" fill="white"/>
</mask>
<g mask="url(#mask0_1_7940)">
<path d="M0.25 930.181H1919.75M0.25 911.582H1919.75M0.25 892.982H1919.75M0.25 874.384H1919.75M0.25 855.784H1919.75M0.25 837.185H1919.75M0.25 818.586H1919.75M0.25 799.985H1919.75M0.25 781.387H1919.75M0.25 762.788H1919.75M0.25 744.189H1919.75M0.25 725.59H1919.75M0.25 706.99H1919.75M0.25 688.391H1919.75M0.25 669.792H1919.75M0.25 651.193H1919.75M0.25 632.593H1919.75M0.25 613.994H1919.75M0.25 595.392H1919.75M0.25 576.797H1919.75M0.25 558.196H1919.75M0.25 539.598H1919.75M0.25 520.998H1919.75M0.25 502.399H1919.75M0.25 483.799H1919.75M0.25 465.201H1919.75M0.25 446.601H1919.75M0.25 428.002H1919.75M0.25 409.406H1919.75M0.25 390.804H1919.75M0.25 372.204H1919.75M0.25 353.605H1919.75M0.25 335.006H1919.75M0.25 316.407H1919.75M0.25 297.807H1919.75M0.25 279.208H1919.75M0.25 260.609H1919.75M0.25 242.01H1919.75M0.25 223.411H1919.75M0.25 204.813H1919.75M0.25 186.213H1919.75M0.25 167.612H1919.75M0.25 149.014H1919.75M0.25 130.414H1919.75M0.25 111.816H1919.75M0.25 93.2152H1919.75M0.25 74.6167H1919.75M0.25 56.0172H1919.75M0.25 37.4187H1919.75M0.25 18.8183H1919.75M1895.46 0.219727V948.781M1871.15 0.219727V948.781M1846.86 0.219727V948.781M1822.56 0.219727V948.781M1798.26 0.219727V948.781M1773.97 0.219727V948.781M1749.67 0.219727V948.781M1725.37 0.219727V948.781M1701.07 0.219727V948.781M1676.78 0.219727V948.781M1652.48 0.219727V948.781M1628.18 0.219727V948.781M1603.88 0.219727V948.781M1579.59 0.219727V948.781M1555.29 0.219727V948.781M1530.99 0.219727V948.781M1506.69 0.219727V948.781M1482.4 0.219727V948.781M1458.1 0.219727V948.781M1433.8 0.219727V948.781M1409.5 0.219727V948.781M1385.21 0.219727V948.781M1360.91 0.219727V948.781M1336.61 0.219727V948.781M1312.31 0.219727V948.781M1288.01 0.219727V948.781M1263.72 0.219727V948.781M1239.42 0.219727V948.781M1215.12 0.219727V948.781M1190.83 0.219727V948.781M1166.53 0.219727V948.781M1142.23 0.219727V948.781M1117.93 0.219727V948.781M1093.64 0.219727V948.781M1069.34 0.219727V948.781M1045.04 0.219727V948.781M1020.74 0.219727V948.781M996.447 0.219727V948.781M972.149 0.219727V948.781M947.851 0.219727V948.781M923.554 0.219727V948.781M899.256 0.219727V948.781M874.959 0.219727V948.781M850.662 0.219727V948.781M826.364 0.219727V948.781M802.066 0.219727V948.781M777.769 0.219727V948.781M753.472 0.219727V948.781M729.174 0.219727V948.781M704.877 0.219727V948.781M680.579 0.219727V948.781M656.279 0.219727V948.781M631.986 0.219727V948.781M607.687 0.219727V948.781M583.389 0.219727V948.781M559.091 0.219727V948.781M534.794 0.219727V948.781M510.497 0.219727V948.781M486.199 0.219727V948.781M461.902 0.219727V948.781M437.604 0.219727V948.781M413.307 0.219727V948.781M389.01 0.219727V948.781M364.712 0.219727V948.781M340.414 0.219727V948.781M316.117 0.219727V948.781M291.82 0.219727V948.781M267.522 0.219727V948.781M243.225 0.219727V948.781M218.927 0.219727V948.781M194.629 0.219727V948.781M170.333 0.219727V948.781M146.035 0.219727V948.781M121.737 0.219727V948.781M97.4397 0.219727V948.781M73.142 0.219727V948.781M48.8453 0.219727V948.781M24.5437 0.219727V948.781M0.25 0.219727H1919.75V948.781H0.25V0.219727Z" stroke="#E1E1E1"/>
</g>
</svg>
