<svg xmlns="http://www.w3.org/2000/svg" width="123" height="464" viewBox="0 0 123 464" fill="none">
  <g clip-path="url(#clip0_1_3167)">
    <path d="M0.567138 440.024L0.567139 463.137L12.7384 463.137L12.7384 440.024L0.567138 440.024Z" stroke="#CCB4FB" stroke-width="0.711458" stroke-miterlimit="10"/>
    <path d="M0.567138 416.91L0.567139 440.024L12.7384 440.024L12.7384 416.91L0.567138 416.91Z" stroke="#CCB4FB" stroke-width="0.711458" stroke-miterlimit="10"/>
    <path d="M0.567138 393.797L0.567139 416.91L12.7384 416.91L12.7384 393.797L0.567138 393.797Z" stroke="#CCB4FB" stroke-width="0.711458" stroke-miterlimit="10"/>
    <path d="M0.567138 370.683L0.567139 393.796L12.7384 393.796L12.7384 370.683L0.567138 370.683Z" stroke="#CCB4FB" stroke-width="0.711458" stroke-miterlimit="10"/>
    <path d="M0.567138 347.568L0.567139 370.681L12.7384 370.681L12.7384 347.568L0.567138 347.568Z" stroke="#CCB4FB" stroke-width="0.711458" stroke-miterlimit="10"/>
    <path d="M0.567138 324.454L0.567139 347.568L12.7384 347.568L12.7384 324.454L0.567138 324.454Z" stroke="#CCB4FB" stroke-width="0.711458" stroke-miterlimit="10"/>
    <path d="M0.567138 301.341L0.567139 324.454L12.7384 324.454L12.7384 301.341L0.567138 301.341Z" stroke="#CCB4FB" stroke-width="0.711458" stroke-miterlimit="10"/>
    <path d="M0.567138 278.228L0.567139 301.341L12.7384 301.341L12.7384 278.228L0.567138 278.228Z" stroke="#CCB4FB" stroke-width="0.711458" stroke-miterlimit="10"/>
    <path d="M0.566894 255.114L0.566895 278.227L12.7382 278.227L12.7382 255.114L0.566894 255.114Z" stroke="#CCB4FB" stroke-width="0.711458" stroke-miterlimit="10"/>
    <path d="M0.566894 232L0.566895 255.114L12.7382 255.114L12.7382 232L0.566894 232Z" stroke="#CCB4FB" stroke-width="0.711458" stroke-miterlimit="10"/>
    <path d="M12.7383 440.024L12.7383 463.137L24.9096 463.137L24.9096 440.024L12.7383 440.024Z" stroke="#CCB4FB" stroke-width="0.711458" stroke-miterlimit="10"/>
    <path d="M12.7383 416.91L12.7383 440.024L24.9096 440.024L24.9096 416.91L12.7383 416.91Z" stroke="#CCB4FB" stroke-width="0.711458" stroke-miterlimit="10"/>
    <path d="M12.7383 393.797L12.7383 416.91L24.9096 416.91L24.9096 393.797L12.7383 393.797Z" stroke="#CCB4FB" stroke-width="0.711458" stroke-miterlimit="10"/>
    <path d="M12.7383 370.683L12.7383 393.796L24.9096 393.796L24.9096 370.683L12.7383 370.683Z" stroke="#CCB4FB" stroke-width="0.711458" stroke-miterlimit="10"/>
    <path d="M12.7383 347.568L12.7383 370.681L24.9096 370.681L24.9096 347.568L12.7383 347.568Z" stroke="#CCB4FB" stroke-width="0.711458" stroke-miterlimit="10"/>
    <path d="M12.7383 324.454L12.7383 347.568L24.9096 347.568L24.9096 324.454L12.7383 324.454Z" stroke="#CCB4FB" stroke-width="0.711458" stroke-miterlimit="10"/>
    <path d="M12.7383 301.341L12.7383 324.454L24.9096 324.454L24.9096 301.341L12.7383 301.341Z" stroke="#CCB4FB" stroke-width="0.711458" stroke-miterlimit="10"/>
    <path d="M12.7383 278.228L12.7383 301.341L24.9096 301.341L24.9096 278.228L12.7383 278.228Z" stroke="#CCB4FB" stroke-width="0.711458" stroke-miterlimit="10"/>
    <path d="M12.7383 255.114L12.7383 278.227L24.9096 278.227L24.9096 255.114L12.7383 255.114Z" stroke="#CCB4FB" stroke-width="0.711458" stroke-miterlimit="10"/>
    <path d="M12.7383 232L12.7383 255.114L24.9096 255.114L24.9096 232L12.7383 232Z" stroke="#CCB4FB" stroke-width="0.711458" stroke-miterlimit="10"/>
    <path d="M24.9094 440.024L24.9094 463.137L37.0807 463.137L37.0807 440.024L24.9094 440.024Z" stroke="#CCB4FB" stroke-width="0.711458" stroke-miterlimit="10"/>
    <path d="M24.9094 416.91L24.9094 440.024L37.0807 440.024L37.0807 416.91L24.9094 416.91Z" stroke="#CCB4FB" stroke-width="0.711458" stroke-miterlimit="10"/>
    <path d="M24.9094 393.797L24.9094 416.91L37.0807 416.91L37.0807 393.797L24.9094 393.797Z" stroke="#CCB4FB" stroke-width="0.711458" stroke-miterlimit="10"/>
    <path d="M24.9094 370.683L24.9094 393.796L37.0807 393.796L37.0807 370.683L24.9094 370.683Z" stroke="#CCB4FB" stroke-width="0.711458" stroke-miterlimit="10"/>
    <path d="M24.9094 347.568L24.9094 370.681L37.0807 370.681L37.0807 347.568L24.9094 347.568Z" stroke="#CCB4FB" stroke-width="0.711458" stroke-miterlimit="10"/>
    <path d="M24.9094 324.454L24.9094 347.568L37.0807 347.568L37.0807 324.454L24.9094 324.454Z" stroke="#CCB4FB" stroke-width="0.711458" stroke-miterlimit="10"/>
    <path d="M24.9094 301.341L24.9094 324.454L37.0807 324.454L37.0807 301.341L24.9094 301.341Z" stroke="#CCB4FB" stroke-width="0.711458" stroke-miterlimit="10"/>
    <path d="M24.9094 278.228L24.9094 301.341L37.0807 301.341L37.0807 278.228L24.9094 278.228Z" stroke="#CCB4FB" stroke-width="0.711458" stroke-miterlimit="10"/>
    <path d="M24.9094 255.114L24.9094 278.227L37.0807 278.227L37.0807 255.114L24.9094 255.114Z" stroke="#CCB4FB" stroke-width="0.711458" stroke-miterlimit="10"/>
    <path d="M24.9094 232L24.9094 255.114L37.0807 255.114L37.0807 232L24.9094 232Z" stroke="#CCB4FB" stroke-width="0.711458" stroke-miterlimit="10"/>
    <path d="M37.0806 440.024L37.0806 463.137L49.2519 463.137L49.2519 440.024L37.0806 440.024Z" stroke="#CCB4FB" stroke-width="0.711458" stroke-miterlimit="10"/>
    <path d="M37.0806 416.91L37.0806 440.024L49.2519 440.024L49.2519 416.91L37.0806 416.91Z" stroke="#CCB4FB" stroke-width="0.711458" stroke-miterlimit="10"/>
    <path d="M37.0806 393.797L37.0806 416.91L49.2519 416.91L49.2519 393.797L37.0806 393.797Z" stroke="#CCB4FB" stroke-width="0.711458" stroke-miterlimit="10"/>
    <path d="M37.0806 370.683L37.0806 393.796L49.2519 393.796L49.2519 370.683L37.0806 370.683Z" stroke="#CCB4FB" stroke-width="0.711458" stroke-miterlimit="10"/>
    <path d="M37.0806 347.568L37.0806 370.681L49.2519 370.681L49.2519 347.568L37.0806 347.568Z" stroke="#CCB4FB" stroke-width="0.711458" stroke-miterlimit="10"/>
    <path d="M37.0806 324.454L37.0806 347.568L49.2519 347.568L49.2519 324.454L37.0806 324.454Z" stroke="#CCB4FB" stroke-width="0.711458" stroke-miterlimit="10"/>
    <path d="M37.0806 301.341L37.0806 324.454L49.2519 324.454L49.2519 301.341L37.0806 301.341Z" stroke="#CCB4FB" stroke-width="0.711458" stroke-miterlimit="10"/>
    <path d="M37.0806 278.228L37.0806 301.341L49.2519 301.341L49.2519 278.228L37.0806 278.228Z" stroke="#CCB4FB" stroke-width="0.711458" stroke-miterlimit="10"/>
    <path d="M37.0806 255.114L37.0806 278.227L49.2519 278.227L49.2519 255.114L37.0806 255.114Z" stroke="#CCB4FB" stroke-width="0.711458" stroke-miterlimit="10"/>
    <path d="M37.0806 232L37.0806 255.114L49.2519 255.114L49.2519 232L37.0806 232Z" stroke="#CCB4FB" stroke-width="0.711458" stroke-miterlimit="10"/>
    <path d="M49.2517 440.024L49.2517 463.137L61.423 463.137L61.423 440.024L49.2517 440.024Z" stroke="#CCB4FB" stroke-width="0.711458" stroke-miterlimit="10"/>
    <path d="M49.2517 416.91L49.2517 440.024L61.423 440.024L61.423 416.91L49.2517 416.91Z" stroke="#CCB4FB" stroke-width="0.711458" stroke-miterlimit="10"/>
    <path d="M49.2517 393.797L49.2517 416.91L61.423 416.91L61.423 393.797L49.2517 393.797Z" stroke="#CCB4FB" stroke-width="0.711458" stroke-miterlimit="10"/>
    <path d="M49.2517 370.683L49.2517 393.796L61.423 393.796L61.423 370.683L49.2517 370.683Z" stroke="#CCB4FB" stroke-width="0.711458" stroke-miterlimit="10"/>
    <path d="M49.2517 347.568L49.2517 370.681L61.423 370.681L61.423 347.568L49.2517 347.568Z" stroke="#CCB4FB" stroke-width="0.711458" stroke-miterlimit="10"/>
    <path d="M49.2517 324.454L49.2517 347.568L61.423 347.568L61.423 324.454L49.2517 324.454Z" stroke="#CCB4FB" stroke-width="0.711458" stroke-miterlimit="10"/>
    <path d="M49.2517 301.341L49.2517 324.454L61.423 324.454L61.423 301.341L49.2517 301.341Z" stroke="#CCB4FB" stroke-width="0.711458" stroke-miterlimit="10"/>
    <path d="M49.2517 278.228L49.2517 301.341L61.423 301.341L61.423 278.228L49.2517 278.228Z" stroke="#CCB4FB" stroke-width="0.711458" stroke-miterlimit="10"/>
    <path d="M49.2517 255.114L49.2517 278.227L61.423 278.227L61.423 255.114L49.2517 255.114Z" stroke="#CCB4FB" stroke-width="0.711458" stroke-miterlimit="10"/>
    <path d="M49.2517 232L49.2517 255.114L61.423 255.114L61.423 232L49.2517 232Z" stroke="#CCB4FB" stroke-width="0.711458" stroke-miterlimit="10"/>
    <path d="M61.4231 440.024L61.4231 463.137L73.5944 463.137L73.5944 440.024L61.4231 440.024Z" stroke="#CCB4FB" stroke-width="0.711458" stroke-miterlimit="10"/>
    <path d="M61.4231 416.91L61.4231 440.024L73.5944 440.024L73.5944 416.91L61.4231 416.91Z" stroke="#CCB4FB" stroke-width="0.711458" stroke-miterlimit="10"/>
    <path d="M61.4231 393.797L61.4231 416.91L73.5944 416.91L73.5944 393.797L61.4231 393.797Z" stroke="#CCB4FB" stroke-width="0.711458" stroke-miterlimit="10"/>
    <path d="M61.4231 370.683L61.4231 393.796L73.5944 393.796L73.5944 370.683L61.4231 370.683Z" stroke="#CCB4FB" stroke-width="0.711458" stroke-miterlimit="10"/>
    <path d="M61.4231 347.568L61.4231 370.681L73.5944 370.681L73.5944 347.568L61.4231 347.568Z" stroke="#CCB4FB" stroke-width="0.711458" stroke-miterlimit="10"/>
    <path d="M61.4231 324.454L61.4231 347.568L73.5944 347.568L73.5944 324.454L61.4231 324.454Z" stroke="#CCB4FB" stroke-width="0.711458" stroke-miterlimit="10"/>
    <path d="M61.4231 301.341L61.4231 324.454L73.5944 324.454L73.5944 301.341L61.4231 301.341Z" stroke="#CCB4FB" stroke-width="0.711458" stroke-miterlimit="10"/>
    <path d="M61.4231 278.228L61.4231 301.341L73.5944 301.341L73.5944 278.228L61.4231 278.228Z" stroke="#CCB4FB" stroke-width="0.711458" stroke-miterlimit="10"/>
    <path d="M61.4231 255.114L61.4231 278.227L73.5944 278.227L73.5944 255.114L61.4231 255.114Z" stroke="#CCB4FB" stroke-width="0.711458" stroke-miterlimit="10"/>
    <path d="M61.4231 232L61.4231 255.114L73.5944 255.114L73.5944 232L61.4231 232Z" stroke="#CCB4FB" stroke-width="0.711458" stroke-miterlimit="10"/>
    <path d="M73.5942 440.024L73.5942 463.137L85.7655 463.137L85.7655 440.024L73.5942 440.024Z" stroke="#CCB4FB" stroke-width="0.711458" stroke-miterlimit="10"/>
    <path d="M73.5942 416.91L73.5942 440.024L85.7655 440.024L85.7655 416.91L73.5942 416.91Z" stroke="#CCB4FB" stroke-width="0.711458" stroke-miterlimit="10"/>
    <path d="M73.5942 393.797L73.5942 416.91L85.7655 416.91L85.7655 393.797L73.5942 393.797Z" stroke="#CCB4FB" stroke-width="0.711458" stroke-miterlimit="10"/>
    <path d="M73.5942 370.683L73.5942 393.796L85.7655 393.796L85.7655 370.683L73.5942 370.683Z" stroke="#CCB4FB" stroke-width="0.711458" stroke-miterlimit="10"/>
    <path d="M73.5942 347.568L73.5942 370.681L85.7655 370.681L85.7655 347.568L73.5942 347.568Z" stroke="#CCB4FB" stroke-width="0.711458" stroke-miterlimit="10"/>
    <path d="M73.5942 324.454L73.5942 347.568L85.7655 347.568L85.7655 324.454L73.5942 324.454Z" stroke="#CCB4FB" stroke-width="0.711458" stroke-miterlimit="10"/>
    <path d="M73.5942 301.341L73.5942 324.454L85.7655 324.454L85.7655 301.341L73.5942 301.341Z" stroke="#CCB4FB" stroke-width="0.711458" stroke-miterlimit="10"/>
    <path d="M73.5942 278.228L73.5942 301.341L85.7655 301.341L85.7655 278.228L73.5942 278.228Z" stroke="#CCB4FB" stroke-width="0.711458" stroke-miterlimit="10"/>
    <path d="M73.5942 255.114L73.5942 278.227L85.7655 278.227L85.7655 255.114L73.5942 255.114Z" stroke="#CCB4FB" stroke-width="0.711458" stroke-miterlimit="10"/>
    <path d="M73.5942 232L73.5942 255.114L85.7655 255.114L85.7655 232L73.5942 232Z" stroke="#CCB4FB" stroke-width="0.711458" stroke-miterlimit="10"/>
    <path d="M85.7656 440.024L85.7656 463.137L97.9369 463.137L97.9369 440.024L85.7656 440.024Z" stroke="#CCB4FB" stroke-width="0.711458" stroke-miterlimit="10"/>
    <path d="M85.7656 416.91L85.7656 440.024L97.9369 440.024L97.9369 416.91L85.7656 416.91Z" stroke="#CCB4FB" stroke-width="0.711458" stroke-miterlimit="10"/>
    <path d="M85.7656 393.797L85.7656 416.91L97.9369 416.91L97.9369 393.797L85.7656 393.797Z" stroke="#CCB4FB" stroke-width="0.711458" stroke-miterlimit="10"/>
    <path d="M85.7656 370.683L85.7656 393.796L97.9369 393.796L97.9369 370.683L85.7656 370.683Z" stroke="#CCB4FB" stroke-width="0.711458" stroke-miterlimit="10"/>
    <path d="M85.7656 347.568L85.7656 370.681L97.9369 370.681L97.9369 347.568L85.7656 347.568Z" stroke="#CCB4FB" stroke-width="0.711458" stroke-miterlimit="10"/>
    <path d="M85.7656 324.454L85.7656 347.568L97.9369 347.568L97.9369 324.454L85.7656 324.454Z" stroke="#CCB4FB" stroke-width="0.711458" stroke-miterlimit="10"/>
    <path d="M85.7656 301.341L85.7656 324.454L97.9369 324.454L97.9369 301.341L85.7656 301.341Z" stroke="#CCB4FB" stroke-width="0.711458" stroke-miterlimit="10"/>
    <path d="M85.7656 278.228L85.7656 301.341L97.9369 301.341L97.9369 278.228L85.7656 278.228Z" stroke="#CCB4FB" stroke-width="0.711458" stroke-miterlimit="10"/>
    <path d="M85.7656 255.114L85.7656 278.227L97.9369 278.227L97.9369 255.114L85.7656 255.114Z" stroke="#CCB4FB" stroke-width="0.711458" stroke-miterlimit="10"/>
    <path d="M85.7656 232L85.7656 255.114L97.9369 255.114L97.9369 232L85.7656 232Z" stroke="#CCB4FB" stroke-width="0.711458" stroke-miterlimit="10"/>
    <path d="M97.9365 440.024L97.9365 463.137L110.108 463.137L110.108 440.024L97.9365 440.024Z" stroke="#CCB4FB" stroke-width="0.711458" stroke-miterlimit="10"/>
    <path d="M97.9365 416.91L97.9365 440.024L110.108 440.024L110.108 416.91L97.9365 416.91Z" stroke="#CCB4FB" stroke-width="0.711458" stroke-miterlimit="10"/>
    <path d="M97.9365 393.797L97.9365 416.91L110.108 416.91L110.108 393.797L97.9365 393.797Z" stroke="#CCB4FB" stroke-width="0.711458" stroke-miterlimit="10"/>
    <path d="M97.9365 370.683L97.9365 393.796L110.108 393.796L110.108 370.683L97.9365 370.683Z" stroke="#CCB4FB" stroke-width="0.711458" stroke-miterlimit="10"/>
    <path d="M97.9365 347.568L97.9365 370.681L110.108 370.681L110.108 347.568L97.9365 347.568Z" stroke="#CCB4FB" stroke-width="0.711458" stroke-miterlimit="10"/>
    <path d="M97.9365 324.454L97.9365 347.568L110.108 347.568L110.108 324.454L97.9365 324.454Z" stroke="#CCB4FB" stroke-width="0.711458" stroke-miterlimit="10"/>
    <path d="M97.9365 301.341L97.9365 324.454L110.108 324.454L110.108 301.341L97.9365 301.341Z" stroke="#CCB4FB" stroke-width="0.711458" stroke-miterlimit="10"/>
    <path d="M97.9365 278.228L97.9365 301.341L110.108 301.341L110.108 278.228L97.9365 278.228Z" stroke="#CCB4FB" stroke-width="0.711458" stroke-miterlimit="10"/>
    <path d="M97.9365 255.114L97.9365 278.227L110.108 278.227L110.108 255.114L97.9365 255.114Z" stroke="#CCB4FB" stroke-width="0.711458" stroke-miterlimit="10"/>
    <path d="M97.9365 232L97.9365 255.114L110.108 255.114L110.108 232L97.9365 232Z" stroke="#CCB4FB" stroke-width="0.711458" stroke-miterlimit="10"/>
    <mask id="mask0_1_3167" style="mask-type:luminance" maskUnits="userSpaceOnUse" x="0" y="0" width="123" height="464">
      <path d="M0.448222 0.500977L0.448242 463.501L122.398 463.501L122.398 0.500971L0.448222 0.500977Z" fill="white"/>
    </mask>
    <g mask="url(#mask0_1_3167)">
      <path d="M110.108 440.024L110.108 463.138L122.279 463.138L122.279 440.024L110.108 440.024Z" stroke="#CCB4FB" stroke-width="0.711458" stroke-miterlimit="10"/>
      <path d="M110.108 416.911L110.108 440.024L122.279 440.024L122.279 416.911L110.108 416.911Z" stroke="#CCB4FB" stroke-width="0.711458" stroke-miterlimit="10"/>
      <path d="M110.108 393.797L110.108 416.911L122.279 416.911L122.279 393.797L110.108 393.797Z" stroke="#CCB4FB" stroke-width="0.711458" stroke-miterlimit="10"/>
      <path d="M110.108 370.684L110.108 393.797L122.279 393.797L122.279 370.684L110.108 370.684Z" stroke="#CCB4FB" stroke-width="0.711458" stroke-miterlimit="10"/>
      <path d="M110.108 347.568L110.108 370.682L122.279 370.682L122.279 347.568L110.108 347.568Z" stroke="#CCB4FB" stroke-width="0.711458" stroke-miterlimit="10"/>
      <path d="M110.108 324.455L110.108 347.568L122.279 347.568L122.279 324.455L110.108 324.455Z" stroke="#CCB4FB" stroke-width="0.711458" stroke-miterlimit="10"/>
      <path d="M110.108 301.342L110.108 324.455L122.279 324.455L122.279 301.342L110.108 301.342Z" stroke="#CCB4FB" stroke-width="0.711458" stroke-miterlimit="10"/>
      <path d="M110.108 278.228L110.108 301.342L122.279 301.342L122.279 278.228L110.108 278.228Z" stroke="#CCB4FB" stroke-width="0.711458" stroke-miterlimit="10"/>
      <path d="M110.108 255.114L110.108 278.228L122.279 278.228L122.279 255.114L110.108 255.114Z" stroke="#CCB4FB" stroke-width="0.711458" stroke-miterlimit="10"/>
      <path d="M110.108 232.001L110.108 255.115L122.279 255.115L122.279 232.001L110.108 232.001Z" stroke="#CCB4FB" stroke-width="0.711458" stroke-miterlimit="10"/>
      <path d="M61.4232 232.001L0.567139 463.138L122.279 463.138L61.4232 232.001Z" stroke="#CCB4FB" stroke-width="0.711458" stroke-miterlimit="10"/>
      <path d="M61.4233 463.138L122.279 232.001L0.567129 232.001L61.4233 463.138Z" stroke="#CCB4FB" stroke-width="0.711458" stroke-miterlimit="10"/>
    </g>
    <path d="M0.566894 208.887L0.566895 232L12.7382 232L12.7382 208.887L0.566894 208.887Z" stroke="#CCB4FB" stroke-width="0.711458" stroke-miterlimit="10"/>
    <path d="M0.566894 185.773L0.566895 208.887L12.7382 208.887L12.7382 185.773L0.566894 185.773Z" stroke="#CCB4FB" stroke-width="0.711458" stroke-miterlimit="10"/>
    <path d="M0.566894 162.66L0.566895 185.773L12.7382 185.773L12.7382 162.66L0.566894 162.66Z" stroke="#CCB4FB" stroke-width="0.711458" stroke-miterlimit="10"/>
    <path d="M0.566894 139.546L0.566895 162.66L12.7382 162.66L12.7382 139.546L0.566894 139.546Z" stroke="#CCB4FB" stroke-width="0.711458" stroke-miterlimit="10"/>
    <path d="M0.566894 116.431L0.566895 139.545L12.7382 139.545L12.7382 116.431L0.566894 116.431Z" stroke="#CCB4FB" stroke-width="0.711458" stroke-miterlimit="10"/>
    <path d="M0.566894 93.3177L0.566895 116.431L12.7382 116.431L12.7382 93.3177L0.566894 93.3177Z" stroke="#CCB4FB" stroke-width="0.711458" stroke-miterlimit="10"/>
    <path d="M0.566894 70.2042L0.566895 93.3176L12.7382 93.3176L12.7382 70.2042L0.566894 70.2042Z" stroke="#CCB4FB" stroke-width="0.711458" stroke-miterlimit="10"/>
    <path d="M0.566894 47.0907L0.566895 70.2041L12.7382 70.2041L12.7382 47.0907L0.566894 47.0907Z" stroke="#CCB4FB" stroke-width="0.711458" stroke-miterlimit="10"/>
    <path d="M0.566894 23.9772L0.566895 47.0906L12.7382 47.0906L12.7382 23.9772L0.566894 23.9772Z" stroke="#CCB4FB" stroke-width="0.711458" stroke-miterlimit="10"/>
    <path d="M0.566894 0.86364L0.566895 23.9771L12.7382 23.9771L12.7382 0.863639L0.566894 0.86364Z" stroke="#CCB4FB" stroke-width="0.711458" stroke-miterlimit="10"/>
    <path d="M12.7383 208.887L12.7383 232L24.9096 232L24.9096 208.887L12.7383 208.887Z" stroke="#CCB4FB" stroke-width="0.711458" stroke-miterlimit="10"/>
    <path d="M12.7383 185.773L12.7383 208.887L24.9096 208.887L24.9096 185.773L12.7383 185.773Z" stroke="#CCB4FB" stroke-width="0.711458" stroke-miterlimit="10"/>
    <path d="M12.7383 162.66L12.7383 185.773L24.9096 185.773L24.9096 162.66L12.7383 162.66Z" stroke="#CCB4FB" stroke-width="0.711458" stroke-miterlimit="10"/>
    <path d="M12.7383 139.546L12.7383 162.66L24.9096 162.66L24.9096 139.546L12.7383 139.546Z" stroke="#CCB4FB" stroke-width="0.711458" stroke-miterlimit="10"/>
    <path d="M12.7383 116.431L12.7383 139.545L24.9096 139.545L24.9096 116.431L12.7383 116.431Z" stroke="#CCB4FB" stroke-width="0.711458" stroke-miterlimit="10"/>
    <path d="M12.7383 93.3177L12.7383 116.431L24.9096 116.431L24.9096 93.3177L12.7383 93.3177Z" stroke="#CCB4FB" stroke-width="0.711458" stroke-miterlimit="10"/>
    <path d="M12.7383 70.2042L12.7383 93.3176L24.9096 93.3176L24.9096 70.2042L12.7383 70.2042Z" stroke="#CCB4FB" stroke-width="0.711458" stroke-miterlimit="10"/>
    <path d="M12.7383 47.0907L12.7383 70.2041L24.9096 70.2041L24.9096 47.0907L12.7383 47.0907Z" stroke="#CCB4FB" stroke-width="0.711458" stroke-miterlimit="10"/>
    <path d="M12.7383 23.9772L12.7383 47.0906L24.9096 47.0906L24.9096 23.9772L12.7383 23.9772Z" stroke="#CCB4FB" stroke-width="0.711458" stroke-miterlimit="10"/>
    <path d="M12.7383 0.86364L12.7383 23.9771L24.9096 23.9771L24.9096 0.863639L12.7383 0.86364Z" stroke="#CCB4FB" stroke-width="0.711458" stroke-miterlimit="10"/>
    <path d="M24.9094 208.887L24.9094 232L37.0807 232L37.0807 208.887L24.9094 208.887Z" stroke="#CCB4FB" stroke-width="0.711458" stroke-miterlimit="10"/>
    <path d="M24.9094 185.773L24.9094 208.887L37.0807 208.887L37.0807 185.773L24.9094 185.773Z" stroke="#CCB4FB" stroke-width="0.711458" stroke-miterlimit="10"/>
    <path d="M24.9094 162.66L24.9094 185.773L37.0807 185.773L37.0807 162.66L24.9094 162.66Z" stroke="#CCB4FB" stroke-width="0.711458" stroke-miterlimit="10"/>
    <path d="M24.9094 139.546L24.9094 162.66L37.0807 162.66L37.0807 139.546L24.9094 139.546Z" stroke="#CCB4FB" stroke-width="0.711458" stroke-miterlimit="10"/>
    <path d="M24.9094 116.431L24.9094 139.545L37.0807 139.545L37.0807 116.431L24.9094 116.431Z" stroke="#CCB4FB" stroke-width="0.711458" stroke-miterlimit="10"/>
    <path d="M24.9094 93.3177L24.9094 116.431L37.0807 116.431L37.0807 93.3177L24.9094 93.3177Z" stroke="#CCB4FB" stroke-width="0.711458" stroke-miterlimit="10"/>
    <path d="M24.9094 70.2042L24.9094 93.3176L37.0807 93.3176L37.0807 70.2042L24.9094 70.2042Z" stroke="#CCB4FB" stroke-width="0.711458" stroke-miterlimit="10"/>
    <path d="M24.9094 47.0907L24.9094 70.2041L37.0807 70.2041L37.0807 47.0907L24.9094 47.0907Z" stroke="#CCB4FB" stroke-width="0.711458" stroke-miterlimit="10"/>
    <path d="M24.9094 23.9772L24.9094 47.0906L37.0807 47.0906L37.0807 23.9772L24.9094 23.9772Z" stroke="#CCB4FB" stroke-width="0.711458" stroke-miterlimit="10"/>
    <path d="M24.9094 0.86364L24.9094 23.9771L37.0807 23.9771L37.0807 0.863639L24.9094 0.86364Z" stroke="#CCB4FB" stroke-width="0.711458" stroke-miterlimit="10"/>
    <path d="M37.0806 208.887L37.0806 232L49.2519 232L49.2519 208.887L37.0806 208.887Z" stroke="#CCB4FB" stroke-width="0.711458" stroke-miterlimit="10"/>
    <path d="M37.0806 185.773L37.0806 208.887L49.2519 208.887L49.2519 185.773L37.0806 185.773Z" stroke="#CCB4FB" stroke-width="0.711458" stroke-miterlimit="10"/>
    <path d="M37.0806 162.66L37.0806 185.773L49.2519 185.773L49.2519 162.66L37.0806 162.66Z" stroke="#CCB4FB" stroke-width="0.711458" stroke-miterlimit="10"/>
    <path d="M37.0806 139.546L37.0806 162.66L49.2519 162.66L49.2519 139.546L37.0806 139.546Z" stroke="#CCB4FB" stroke-width="0.711458" stroke-miterlimit="10"/>
    <path d="M37.0806 116.431L37.0806 139.545L49.2519 139.545L49.2519 116.431L37.0806 116.431Z" stroke="#CCB4FB" stroke-width="0.711458" stroke-miterlimit="10"/>
    <path d="M37.0806 93.3177L37.0806 116.431L49.2519 116.431L49.2519 93.3177L37.0806 93.3177Z" stroke="#CCB4FB" stroke-width="0.711458" stroke-miterlimit="10"/>
    <path d="M37.0806 70.2042L37.0806 93.3176L49.2519 93.3176L49.2519 70.2042L37.0806 70.2042Z" stroke="#CCB4FB" stroke-width="0.711458" stroke-miterlimit="10"/>
    <path d="M37.0806 47.0907L37.0806 70.2041L49.2519 70.2041L49.2519 47.0907L37.0806 47.0907Z" stroke="#CCB4FB" stroke-width="0.711458" stroke-miterlimit="10"/>
    <path d="M37.0806 23.9772L37.0806 47.0906L49.2519 47.0906L49.2519 23.9772L37.0806 23.9772Z" stroke="#CCB4FB" stroke-width="0.711458" stroke-miterlimit="10"/>
    <path d="M37.0806 0.86364L37.0806 23.9771L49.2519 23.9771L49.2519 0.863639L37.0806 0.86364Z" stroke="#CCB4FB" stroke-width="0.711458" stroke-miterlimit="10"/>
    <path d="M49.2517 208.887L49.2517 232L61.423 232L61.423 208.887L49.2517 208.887Z" stroke="#CCB4FB" stroke-width="0.711458" stroke-miterlimit="10"/>
    <path d="M49.2517 185.773L49.2517 208.887L61.423 208.887L61.423 185.773L49.2517 185.773Z" stroke="#CCB4FB" stroke-width="0.711458" stroke-miterlimit="10"/>
    <path d="M49.2517 162.66L49.2517 185.773L61.423 185.773L61.423 162.66L49.2517 162.66Z" stroke="#CCB4FB" stroke-width="0.711458" stroke-miterlimit="10"/>
    <path d="M49.2517 139.546L49.2517 162.66L61.423 162.66L61.423 139.546L49.2517 139.546Z" stroke="#CCB4FB" stroke-width="0.711458" stroke-miterlimit="10"/>
    <path d="M49.2517 116.431L49.2517 139.545L61.423 139.545L61.423 116.431L49.2517 116.431Z" stroke="#CCB4FB" stroke-width="0.711458" stroke-miterlimit="10"/>
    <path d="M49.2517 93.3177L49.2517 116.431L61.423 116.431L61.423 93.3177L49.2517 93.3177Z" stroke="#CCB4FB" stroke-width="0.711458" stroke-miterlimit="10"/>
    <path d="M49.2517 70.2042L49.2517 93.3176L61.423 93.3176L61.423 70.2042L49.2517 70.2042Z" stroke="#CCB4FB" stroke-width="0.711458" stroke-miterlimit="10"/>
    <path d="M49.2517 47.0907L49.2517 70.2041L61.423 70.2041L61.423 47.0907L49.2517 47.0907Z" stroke="#CCB4FB" stroke-width="0.711458" stroke-miterlimit="10"/>
    <path d="M49.2517 23.9772L49.2517 47.0906L61.423 47.0906L61.423 23.9772L49.2517 23.9772Z" stroke="#CCB4FB" stroke-width="0.711458" stroke-miterlimit="10"/>
    <path d="M49.2517 0.86364L49.2517 23.9771L61.423 23.9771L61.423 0.863639L49.2517 0.86364Z" stroke="#CCB4FB" stroke-width="0.711458" stroke-miterlimit="10"/>
    <path d="M61.4231 208.887L61.4231 232L73.5944 232L73.5944 208.887L61.4231 208.887Z" stroke="#CCB4FB" stroke-width="0.711458" stroke-miterlimit="10"/>
    <path d="M61.4231 185.773L61.4231 208.887L73.5944 208.887L73.5944 185.773L61.4231 185.773Z" stroke="#CCB4FB" stroke-width="0.711458" stroke-miterlimit="10"/>
    <path d="M61.4231 162.66L61.4231 185.773L73.5944 185.773L73.5944 162.66L61.4231 162.66Z" stroke="#CCB4FB" stroke-width="0.711458" stroke-miterlimit="10"/>
    <path d="M61.4231 139.546L61.4231 162.66L73.5944 162.66L73.5944 139.546L61.4231 139.546Z" stroke="#CCB4FB" stroke-width="0.711458" stroke-miterlimit="10"/>
    <path d="M61.4231 116.431L61.4231 139.545L73.5944 139.545L73.5944 116.431L61.4231 116.431Z" stroke="#CCB4FB" stroke-width="0.711458" stroke-miterlimit="10"/>
    <path d="M61.4231 93.3177L61.4231 116.431L73.5944 116.431L73.5944 93.3177L61.4231 93.3177Z" stroke="#CCB4FB" stroke-width="0.711458" stroke-miterlimit="10"/>
    <path d="M61.4231 70.2042L61.4231 93.3176L73.5944 93.3176L73.5944 70.2042L61.4231 70.2042Z" stroke="#CCB4FB" stroke-width="0.711458" stroke-miterlimit="10"/>
    <path d="M61.4231 47.0907L61.4231 70.2041L73.5944 70.2041L73.5944 47.0907L61.4231 47.0907Z" stroke="#CCB4FB" stroke-width="0.711458" stroke-miterlimit="10"/>
    <path d="M61.4231 23.9772L61.4231 47.0906L73.5944 47.0906L73.5944 23.9772L61.4231 23.9772Z" stroke="#CCB4FB" stroke-width="0.711458" stroke-miterlimit="10"/>
    <path d="M61.4231 0.86364L61.4231 23.9771L73.5944 23.9771L73.5944 0.863639L61.4231 0.86364Z" stroke="#CCB4FB" stroke-width="0.711458" stroke-miterlimit="10"/>
    <path d="M73.5942 208.887L73.5942 232L85.7655 232L85.7655 208.887L73.5942 208.887Z" stroke="#CCB4FB" stroke-width="0.711458" stroke-miterlimit="10"/>
    <path d="M73.5942 185.773L73.5942 208.887L85.7655 208.887L85.7655 185.773L73.5942 185.773Z" stroke="#CCB4FB" stroke-width="0.711458" stroke-miterlimit="10"/>
    <path d="M73.5942 162.66L73.5942 185.773L85.7655 185.773L85.7655 162.66L73.5942 162.66Z" stroke="#CCB4FB" stroke-width="0.711458" stroke-miterlimit="10"/>
    <path d="M73.5942 139.546L73.5942 162.66L85.7655 162.66L85.7655 139.546L73.5942 139.546Z" stroke="#CCB4FB" stroke-width="0.711458" stroke-miterlimit="10"/>
    <path d="M73.5942 116.431L73.5942 139.545L85.7655 139.545L85.7655 116.431L73.5942 116.431Z" stroke="#CCB4FB" stroke-width="0.711458" stroke-miterlimit="10"/>
    <path d="M73.5942 93.3177L73.5942 116.431L85.7655 116.431L85.7655 93.3177L73.5942 93.3177Z" stroke="#CCB4FB" stroke-width="0.711458" stroke-miterlimit="10"/>
    <path d="M73.5942 70.2042L73.5942 93.3176L85.7655 93.3176L85.7655 70.2042L73.5942 70.2042Z" stroke="#CCB4FB" stroke-width="0.711458" stroke-miterlimit="10"/>
    <path d="M73.5942 47.0907L73.5942 70.2041L85.7655 70.2041L85.7655 47.0907L73.5942 47.0907Z" stroke="#CCB4FB" stroke-width="0.711458" stroke-miterlimit="10"/>
    <path d="M73.5942 23.9772L73.5942 47.0906L85.7655 47.0906L85.7655 23.9772L73.5942 23.9772Z" stroke="#CCB4FB" stroke-width="0.711458" stroke-miterlimit="10"/>
    <path d="M73.5942 0.86364L73.5942 23.9771L85.7655 23.9771L85.7655 0.863639L73.5942 0.86364Z" stroke="#CCB4FB" stroke-width="0.711458" stroke-miterlimit="10"/>
    <path d="M85.7656 208.887L85.7656 232L97.9369 232L97.9369 208.887L85.7656 208.887Z" stroke="#CCB4FB" stroke-width="0.711458" stroke-miterlimit="10"/>
    <path d="M85.7656 185.773L85.7656 208.887L97.9369 208.887L97.9369 185.773L85.7656 185.773Z" stroke="#CCB4FB" stroke-width="0.711458" stroke-miterlimit="10"/>
    <path d="M85.7656 162.66L85.7656 185.773L97.9369 185.773L97.9369 162.66L85.7656 162.66Z" stroke="#CCB4FB" stroke-width="0.711458" stroke-miterlimit="10"/>
    <path d="M85.7656 139.546L85.7656 162.66L97.9369 162.66L97.9369 139.546L85.7656 139.546Z" stroke="#CCB4FB" stroke-width="0.711458" stroke-miterlimit="10"/>
    <path d="M85.7656 116.431L85.7656 139.545L97.9369 139.545L97.9369 116.431L85.7656 116.431Z" stroke="#CCB4FB" stroke-width="0.711458" stroke-miterlimit="10"/>
    <path d="M85.7656 93.3177L85.7656 116.431L97.9369 116.431L97.9369 93.3177L85.7656 93.3177Z" stroke="#CCB4FB" stroke-width="0.711458" stroke-miterlimit="10"/>
    <path d="M85.7656 70.2042L85.7656 93.3176L97.9369 93.3176L97.9369 70.2042L85.7656 70.2042Z" stroke="#CCB4FB" stroke-width="0.711458" stroke-miterlimit="10"/>
    <path d="M85.7656 47.0907L85.7656 70.2041L97.9369 70.2041L97.9369 47.0907L85.7656 47.0907Z" stroke="#CCB4FB" stroke-width="0.711458" stroke-miterlimit="10"/>
    <path d="M85.7656 23.9772L85.7656 47.0906L97.9369 47.0906L97.9369 23.9772L85.7656 23.9772Z" stroke="#CCB4FB" stroke-width="0.711458" stroke-miterlimit="10"/>
    <path d="M85.7656 0.86364L85.7656 23.9771L97.9369 23.9771L97.9369 0.863639L85.7656 0.86364Z" stroke="#CCB4FB" stroke-width="0.711458" stroke-miterlimit="10"/>
    <path d="M97.9365 208.887L97.9365 232L110.108 232L110.108 208.887L97.9365 208.887Z" stroke="#CCB4FB" stroke-width="0.711458" stroke-miterlimit="10"/>
    <path d="M97.9365 185.773L97.9365 208.887L110.108 208.887L110.108 185.773L97.9365 185.773Z" stroke="#CCB4FB" stroke-width="0.711458" stroke-miterlimit="10"/>
    <path d="M97.9365 162.66L97.9365 185.773L110.108 185.773L110.108 162.66L97.9365 162.66Z" stroke="#CCB4FB" stroke-width="0.711458" stroke-miterlimit="10"/>
    <path d="M97.9365 139.546L97.9365 162.66L110.108 162.66L110.108 139.546L97.9365 139.546Z" stroke="#CCB4FB" stroke-width="0.711458" stroke-miterlimit="10"/>
    <path d="M97.9365 116.431L97.9365 139.545L110.108 139.545L110.108 116.431L97.9365 116.431Z" stroke="#CCB4FB" stroke-width="0.711458" stroke-miterlimit="10"/>
    <path d="M97.9365 93.3177L97.9365 116.431L110.108 116.431L110.108 93.3177L97.9365 93.3177Z" stroke="#CCB4FB" stroke-width="0.711458" stroke-miterlimit="10"/>
    <path d="M97.9365 70.2042L97.9365 93.3176L110.108 93.3176L110.108 70.2042L97.9365 70.2042Z" stroke="#CCB4FB" stroke-width="0.711458" stroke-miterlimit="10"/>
    <path d="M97.9365 47.0907L97.9365 70.2041L110.108 70.2041L110.108 47.0907L97.9365 47.0907Z" stroke="#CCB4FB" stroke-width="0.711458" stroke-miterlimit="10"/>
    <path d="M97.9365 23.9772L97.9365 47.0906L110.108 47.0906L110.108 23.9772L97.9365 23.9772Z" stroke="#CCB4FB" stroke-width="0.711458" stroke-miterlimit="10"/>
    <path d="M97.9365 0.86364L97.9365 23.9771L110.108 23.9771L110.108 0.863639L97.9365 0.86364Z" stroke="#CCB4FB" stroke-width="0.711458" stroke-miterlimit="10"/>
    <mask id="mask1_1_3167" style="mask-type:luminance" maskUnits="userSpaceOnUse" x="0" y="0" width="123" height="464">
      <path d="M0.448222 0.500977L0.448242 463.501L122.398 463.501L122.398 0.500971L0.448222 0.500977Z" fill="white"/>
    </mask>
    <g mask="url(#mask1_1_3167)">
      <path d="M110.108 208.887L110.108 232.001L122.279 232.001L122.279 208.887L110.108 208.887Z" stroke="#CCB4FB" stroke-width="0.711458" stroke-miterlimit="10"/>
      <path d="M110.108 185.774L110.108 208.887L122.279 208.887L122.279 185.774L110.108 185.774Z" stroke="#CCB4FB" stroke-width="0.711458" stroke-miterlimit="10"/>
      <path d="M110.108 162.66L110.108 185.774L122.279 185.774L122.279 162.66L110.108 162.66Z" stroke="#CCB4FB" stroke-width="0.711458" stroke-miterlimit="10"/>
      <path d="M110.108 139.547L110.108 162.66L122.279 162.66L122.279 139.547L110.108 139.547Z" stroke="#CCB4FB" stroke-width="0.711458" stroke-miterlimit="10"/>
      <path d="M110.108 116.432L110.108 139.545L122.279 139.545L122.279 116.432L110.108 116.432Z" stroke="#CCB4FB" stroke-width="0.711458" stroke-miterlimit="10"/>
      <path d="M110.108 93.318L110.108 116.431L122.279 116.431L122.279 93.318L110.108 93.318Z" stroke="#CCB4FB" stroke-width="0.711458" stroke-miterlimit="10"/>
      <path d="M110.108 70.2047L110.108 93.3181L122.279 93.3181L122.279 70.2047L110.108 70.2047Z" stroke="#CCB4FB" stroke-width="0.711458" stroke-miterlimit="10"/>
      <path d="M110.108 47.0912L110.108 70.2046L122.279 70.2046L122.279 47.0912L110.108 47.0912Z" stroke="#CCB4FB" stroke-width="0.711458" stroke-miterlimit="10"/>
      <path d="M110.108 23.9774L110.108 47.0908L122.279 47.0908L122.279 23.9774L110.108 23.9774Z" stroke="#CCB4FB" stroke-width="0.711458" stroke-miterlimit="10"/>
      <path d="M110.108 0.864128L110.108 23.9775L122.279 23.9775L122.279 0.864128L110.108 0.864128Z" stroke="#CCB4FB" stroke-width="0.711458" stroke-miterlimit="10"/>
      <path d="M61.423 0.863527L0.566895 232L122.278 232L61.423 0.863527Z" stroke="#CCB4FB" stroke-width="0.711458" stroke-miterlimit="10"/>
      <path d="M61.423 232L122.278 0.863524L0.566884 0.863529L61.423 232Z" stroke="#CCB4FB" stroke-width="0.711458" stroke-miterlimit="10"/>
    </g>
  </g>
  <defs>
    <clipPath id="clip0_1_3167">
      <rect width="463" height="122" fill="white" transform="translate(0.397949 463.5) rotate(-90)"/>
    </clipPath>
  </defs>
</svg>