<svg xmlns="http://www.w3.org/2000/svg" width="464" height="122" viewBox="0 0 464 122" fill="none">
  <g clip-path="url(#clip0_1_2951)">
    <path d="M24.3742 0.169189H1.26074V12.3405H24.3742V0.169189Z" stroke="#CCB4FB" stroke-width="0.711458" stroke-miterlimit="10"/>
    <path d="M47.4877 0.169189H24.3743V12.3405H47.4877V0.169189Z" stroke="#CCB4FB" stroke-width="0.711458" stroke-miterlimit="10"/>
    <path d="M70.6014 0.169189H47.488V12.3405H70.6014V0.169189Z" stroke="#CCB4FB" stroke-width="0.711458" stroke-miterlimit="10"/>
    <path d="M93.715 0.169189H70.6016V12.3405H93.715V0.169189Z" stroke="#CCB4FB" stroke-width="0.711458" stroke-miterlimit="10"/>
    <path d="M116.83 0.169189H93.7166V12.3405H116.83V0.169189Z" stroke="#CCB4FB" stroke-width="0.711458" stroke-miterlimit="10"/>
    <path d="M139.943 0.169189H116.83V12.3405H139.943V0.169189Z" stroke="#CCB4FB" stroke-width="0.711458" stroke-miterlimit="10"/>
    <path d="M163.057 0.169189H139.944V12.3405H163.057V0.169189Z" stroke="#CCB4FB" stroke-width="0.711458" stroke-miterlimit="10"/>
    <path d="M186.17 0.169189H163.057V12.3405H186.17V0.169189Z" stroke="#CCB4FB" stroke-width="0.711458" stroke-miterlimit="10"/>
    <path d="M209.284 0.169189H186.171V12.3405H209.284V0.169189Z" stroke="#CCB4FB" stroke-width="0.711458" stroke-miterlimit="10"/>
    <path d="M232.398 0.169189H209.284V12.3405H232.398V0.169189Z" stroke="#CCB4FB" stroke-width="0.711458" stroke-miterlimit="10"/>
    <path d="M24.3742 12.3403H1.26074V24.5116H24.3742V12.3403Z" stroke="#CCB4FB" stroke-width="0.711458" stroke-miterlimit="10"/>
    <path d="M47.4877 12.3403H24.3743V24.5116H47.4877V12.3403Z" stroke="#CCB4FB" stroke-width="0.711458" stroke-miterlimit="10"/>
    <path d="M70.6014 12.3403H47.488V24.5116H70.6014V12.3403Z" stroke="#CCB4FB" stroke-width="0.711458" stroke-miterlimit="10"/>
    <path d="M93.715 12.3403H70.6016V24.5116H93.715V12.3403Z" stroke="#CCB4FB" stroke-width="0.711458" stroke-miterlimit="10"/>
    <path d="M116.83 12.3403H93.7166V24.5116H116.83V12.3403Z" stroke="#CCB4FB" stroke-width="0.711458" stroke-miterlimit="10"/>
    <path d="M139.943 12.3403H116.83V24.5116H139.943V12.3403Z" stroke="#CCB4FB" stroke-width="0.711458" stroke-miterlimit="10"/>
    <path d="M163.057 12.3403H139.944V24.5116H163.057V12.3403Z" stroke="#CCB4FB" stroke-width="0.711458" stroke-miterlimit="10"/>
    <path d="M186.17 12.3403H163.057V24.5116H186.17V12.3403Z" stroke="#CCB4FB" stroke-width="0.711458" stroke-miterlimit="10"/>
    <path d="M209.284 12.3403H186.171V24.5116H209.284V12.3403Z" stroke="#CCB4FB" stroke-width="0.711458" stroke-miterlimit="10"/>
    <path d="M232.398 12.3403H209.284V24.5116H232.398V12.3403Z" stroke="#CCB4FB" stroke-width="0.711458" stroke-miterlimit="10"/>
    <path d="M24.3742 24.5115H1.26074V36.6828H24.3742V24.5115Z" stroke="#CCB4FB" stroke-width="0.711458" stroke-miterlimit="10"/>
    <path d="M47.4877 24.5115H24.3743V36.6828H47.4877V24.5115Z" stroke="#CCB4FB" stroke-width="0.711458" stroke-miterlimit="10"/>
    <path d="M70.6014 24.5115H47.488V36.6828H70.6014V24.5115Z" stroke="#CCB4FB" stroke-width="0.711458" stroke-miterlimit="10"/>
    <path d="M93.715 24.5115H70.6016V36.6828H93.715V24.5115Z" stroke="#CCB4FB" stroke-width="0.711458" stroke-miterlimit="10"/>
    <path d="M116.83 24.5115H93.7166V36.6828H116.83V24.5115Z" stroke="#CCB4FB" stroke-width="0.711458" stroke-miterlimit="10"/>
    <path d="M139.943 24.5115H116.83V36.6828H139.943V24.5115Z" stroke="#CCB4FB" stroke-width="0.711458" stroke-miterlimit="10"/>
    <path d="M163.057 24.5115H139.944V36.6828H163.057V24.5115Z" stroke="#CCB4FB" stroke-width="0.711458" stroke-miterlimit="10"/>
    <path d="M186.17 24.5115H163.057V36.6828H186.17V24.5115Z" stroke="#CCB4FB" stroke-width="0.711458" stroke-miterlimit="10"/>
    <path d="M209.284 24.5115H186.171V36.6828H209.284V24.5115Z" stroke="#CCB4FB" stroke-width="0.711458" stroke-miterlimit="10"/>
    <path d="M232.398 24.5115H209.284V36.6828H232.398V24.5115Z" stroke="#CCB4FB" stroke-width="0.711458" stroke-miterlimit="10"/>
    <path d="M24.3742 36.6826H1.26074V48.8539H24.3742V36.6826Z" stroke="#CCB4FB" stroke-width="0.711458" stroke-miterlimit="10"/>
    <path d="M47.4877 36.6826H24.3743V48.8539H47.4877V36.6826Z" stroke="#CCB4FB" stroke-width="0.711458" stroke-miterlimit="10"/>
    <path d="M70.6014 36.6826H47.488V48.8539H70.6014V36.6826Z" stroke="#CCB4FB" stroke-width="0.711458" stroke-miterlimit="10"/>
    <path d="M93.715 36.6826H70.6016V48.8539H93.715V36.6826Z" stroke="#CCB4FB" stroke-width="0.711458" stroke-miterlimit="10"/>
    <path d="M116.83 36.6826H93.7166V48.8539H116.83V36.6826Z" stroke="#CCB4FB" stroke-width="0.711458" stroke-miterlimit="10"/>
    <path d="M139.943 36.6826H116.83V48.8539H139.943V36.6826Z" stroke="#CCB4FB" stroke-width="0.711458" stroke-miterlimit="10"/>
    <path d="M163.057 36.6826H139.944V48.8539H163.057V36.6826Z" stroke="#CCB4FB" stroke-width="0.711458" stroke-miterlimit="10"/>
    <path d="M186.17 36.6826H163.057V48.8539H186.17V36.6826Z" stroke="#CCB4FB" stroke-width="0.711458" stroke-miterlimit="10"/>
    <path d="M209.284 36.6826H186.171V48.8539H209.284V36.6826Z" stroke="#CCB4FB" stroke-width="0.711458" stroke-miterlimit="10"/>
    <path d="M232.398 36.6826H209.284V48.8539H232.398V36.6826Z" stroke="#CCB4FB" stroke-width="0.711458" stroke-miterlimit="10"/>
    <path d="M24.3742 48.8538H1.26074V61.0251H24.3742V48.8538Z" stroke="#CCB4FB" stroke-width="0.711458" stroke-miterlimit="10"/>
    <path d="M47.4877 48.8538H24.3743V61.0251H47.4877V48.8538Z" stroke="#CCB4FB" stroke-width="0.711458" stroke-miterlimit="10"/>
    <path d="M70.6014 48.8538H47.488V61.0251H70.6014V48.8538Z" stroke="#CCB4FB" stroke-width="0.711458" stroke-miterlimit="10"/>
    <path d="M93.715 48.8538H70.6016V61.0251H93.715V48.8538Z" stroke="#CCB4FB" stroke-width="0.711458" stroke-miterlimit="10"/>
    <path d="M116.83 48.8538H93.7166V61.0251H116.83V48.8538Z" stroke="#CCB4FB" stroke-width="0.711458" stroke-miterlimit="10"/>
    <path d="M139.943 48.8538H116.83V61.0251H139.943V48.8538Z" stroke="#CCB4FB" stroke-width="0.711458" stroke-miterlimit="10"/>
    <path d="M163.057 48.8538H139.944V61.0251H163.057V48.8538Z" stroke="#CCB4FB" stroke-width="0.711458" stroke-miterlimit="10"/>
    <path d="M186.17 48.8538H163.057V61.0251H186.17V48.8538Z" stroke="#CCB4FB" stroke-width="0.711458" stroke-miterlimit="10"/>
    <path d="M209.284 48.8538H186.171V61.0251H209.284V48.8538Z" stroke="#CCB4FB" stroke-width="0.711458" stroke-miterlimit="10"/>
    <path d="M232.398 48.8538H209.284V61.0251H232.398V48.8538Z" stroke="#CCB4FB" stroke-width="0.711458" stroke-miterlimit="10"/>
    <path d="M24.3742 61.0251H1.26074V73.1964H24.3742V61.0251Z" stroke="#CCB4FB" stroke-width="0.711458" stroke-miterlimit="10"/>
    <path d="M47.4877 61.0251H24.3743V73.1964H47.4877V61.0251Z" stroke="#CCB4FB" stroke-width="0.711458" stroke-miterlimit="10"/>
    <path d="M70.6014 61.0251H47.488V73.1964H70.6014V61.0251Z" stroke="#CCB4FB" stroke-width="0.711458" stroke-miterlimit="10"/>
    <path d="M93.715 61.0251H70.6016V73.1964H93.715V61.0251Z" stroke="#CCB4FB" stroke-width="0.711458" stroke-miterlimit="10"/>
    <path d="M116.83 61.0251H93.7166V73.1964H116.83V61.0251Z" stroke="#CCB4FB" stroke-width="0.711458" stroke-miterlimit="10"/>
    <path d="M139.943 61.0251H116.83V73.1964H139.943V61.0251Z" stroke="#CCB4FB" stroke-width="0.711458" stroke-miterlimit="10"/>
    <path d="M163.057 61.0251H139.944V73.1964H163.057V61.0251Z" stroke="#CCB4FB" stroke-width="0.711458" stroke-miterlimit="10"/>
    <path d="M186.17 61.0251H163.057V73.1964H186.17V61.0251Z" stroke="#CCB4FB" stroke-width="0.711458" stroke-miterlimit="10"/>
    <path d="M209.284 61.0251H186.171V73.1964H209.284V61.0251Z" stroke="#CCB4FB" stroke-width="0.711458" stroke-miterlimit="10"/>
    <path d="M232.398 61.0251H209.284V73.1964H232.398V61.0251Z" stroke="#CCB4FB" stroke-width="0.711458" stroke-miterlimit="10"/>
    <path d="M24.3742 73.1963H1.26074V85.3676H24.3742V73.1963Z" stroke="#CCB4FB" stroke-width="0.711458" stroke-miterlimit="10"/>
    <path d="M47.4877 73.1963H24.3743V85.3676H47.4877V73.1963Z" stroke="#CCB4FB" stroke-width="0.711458" stroke-miterlimit="10"/>
    <path d="M70.6014 73.1963H47.488V85.3676H70.6014V73.1963Z" stroke="#CCB4FB" stroke-width="0.711458" stroke-miterlimit="10"/>
    <path d="M93.715 73.1963H70.6016V85.3676H93.715V73.1963Z" stroke="#CCB4FB" stroke-width="0.711458" stroke-miterlimit="10"/>
    <path d="M116.83 73.1963H93.7166V85.3676H116.83V73.1963Z" stroke="#CCB4FB" stroke-width="0.711458" stroke-miterlimit="10"/>
    <path d="M139.943 73.1963H116.83V85.3676H139.943V73.1963Z" stroke="#CCB4FB" stroke-width="0.711458" stroke-miterlimit="10"/>
    <path d="M163.057 73.1963H139.944V85.3676H163.057V73.1963Z" stroke="#CCB4FB" stroke-width="0.711458" stroke-miterlimit="10"/>
    <path d="M186.17 73.1963H163.057V85.3676H186.17V73.1963Z" stroke="#CCB4FB" stroke-width="0.711458" stroke-miterlimit="10"/>
    <path d="M209.284 73.1963H186.171V85.3676H209.284V73.1963Z" stroke="#CCB4FB" stroke-width="0.711458" stroke-miterlimit="10"/>
    <path d="M232.398 73.1963H209.284V85.3676H232.398V73.1963Z" stroke="#CCB4FB" stroke-width="0.711458" stroke-miterlimit="10"/>
    <path d="M24.3742 85.3677H1.26074V97.539H24.3742V85.3677Z" stroke="#CCB4FB" stroke-width="0.711458" stroke-miterlimit="10"/>
    <path d="M47.4877 85.3677H24.3743V97.539H47.4877V85.3677Z" stroke="#CCB4FB" stroke-width="0.711458" stroke-miterlimit="10"/>
    <path d="M70.6014 85.3677H47.488V97.539H70.6014V85.3677Z" stroke="#CCB4FB" stroke-width="0.711458" stroke-miterlimit="10"/>
    <path d="M93.715 85.3677H70.6016V97.539H93.715V85.3677Z" stroke="#CCB4FB" stroke-width="0.711458" stroke-miterlimit="10"/>
    <path d="M116.83 85.3677H93.7166V97.539H116.83V85.3677Z" stroke="#CCB4FB" stroke-width="0.711458" stroke-miterlimit="10"/>
    <path d="M139.943 85.3677H116.83V97.539H139.943V85.3677Z" stroke="#CCB4FB" stroke-width="0.711458" stroke-miterlimit="10"/>
    <path d="M163.057 85.3677H139.944V97.539H163.057V85.3677Z" stroke="#CCB4FB" stroke-width="0.711458" stroke-miterlimit="10"/>
    <path d="M186.17 85.3677H163.057V97.539H186.17V85.3677Z" stroke="#CCB4FB" stroke-width="0.711458" stroke-miterlimit="10"/>
    <path d="M209.284 85.3677H186.171V97.539H209.284V85.3677Z" stroke="#CCB4FB" stroke-width="0.711458" stroke-miterlimit="10"/>
    <path d="M232.398 85.3677H209.284V97.539H232.398V85.3677Z" stroke="#CCB4FB" stroke-width="0.711458" stroke-miterlimit="10"/>
    <path d="M24.3742 97.5386H1.26074V109.71H24.3742V97.5386Z" stroke="#CCB4FB" stroke-width="0.711458" stroke-miterlimit="10"/>
    <path d="M47.4877 97.5386H24.3743V109.71H47.4877V97.5386Z" stroke="#CCB4FB" stroke-width="0.711458" stroke-miterlimit="10"/>
    <path d="M70.6014 97.5386H47.488V109.71H70.6014V97.5386Z" stroke="#CCB4FB" stroke-width="0.711458" stroke-miterlimit="10"/>
    <path d="M93.715 97.5386H70.6016V109.71H93.715V97.5386Z" stroke="#CCB4FB" stroke-width="0.711458" stroke-miterlimit="10"/>
    <path d="M116.83 97.5386H93.7166V109.71H116.83V97.5386Z" stroke="#CCB4FB" stroke-width="0.711458" stroke-miterlimit="10"/>
    <path d="M139.943 97.5386H116.83V109.71H139.943V97.5386Z" stroke="#CCB4FB" stroke-width="0.711458" stroke-miterlimit="10"/>
    <path d="M163.057 97.5386H139.944V109.71H163.057V97.5386Z" stroke="#CCB4FB" stroke-width="0.711458" stroke-miterlimit="10"/>
    <path d="M186.17 97.5386H163.057V109.71H186.17V97.5386Z" stroke="#CCB4FB" stroke-width="0.711458" stroke-miterlimit="10"/>
    <path d="M209.284 97.5386H186.171V109.71H209.284V97.5386Z" stroke="#CCB4FB" stroke-width="0.711458" stroke-miterlimit="10"/>
    <path d="M232.398 97.5386H209.284V109.71H232.398V97.5386Z" stroke="#CCB4FB" stroke-width="0.711458" stroke-miterlimit="10"/>
    <mask id="mask0_1_2951" style="mask-type:luminance" maskUnits="userSpaceOnUse" x="0" y="0" width="464" height="122">
      <path d="M463.897 0.050293H0.896973V122H463.897V0.050293Z" fill="white"/>
    </mask>
    <g mask="url(#mask0_1_2951)">
      <path d="M24.3737 109.71H1.26025V121.881H24.3737V109.71Z" stroke="#CCB4FB" stroke-width="0.711458" stroke-miterlimit="10"/>
      <path d="M47.4872 109.71H24.3738V121.881H47.4872V109.71Z" stroke="#CCB4FB" stroke-width="0.711458" stroke-miterlimit="10"/>
      <path d="M70.6007 109.71H47.4873V121.881H70.6007V109.71Z" stroke="#CCB4FB" stroke-width="0.711458" stroke-miterlimit="10"/>
      <path d="M93.7142 109.71H70.6008V121.881H93.7142V109.71Z" stroke="#CCB4FB" stroke-width="0.711458" stroke-miterlimit="10"/>
      <path d="M116.83 109.71H93.7163V121.881H116.83V109.71Z" stroke="#CCB4FB" stroke-width="0.711458" stroke-miterlimit="10"/>
      <path d="M139.943 109.71H116.83V121.881H139.943V109.71Z" stroke="#CCB4FB" stroke-width="0.711458" stroke-miterlimit="10"/>
      <path d="M163.056 109.71H139.943V121.881H163.056V109.71Z" stroke="#CCB4FB" stroke-width="0.711458" stroke-miterlimit="10"/>
      <path d="M186.17 109.71H163.056V121.881H186.17V109.71Z" stroke="#CCB4FB" stroke-width="0.711458" stroke-miterlimit="10"/>
      <path d="M209.284 109.71H186.17V121.881H209.284V109.71Z" stroke="#CCB4FB" stroke-width="0.711458" stroke-miterlimit="10"/>
      <path d="M232.397 109.71H209.283V121.881H232.397V109.71Z" stroke="#CCB4FB" stroke-width="0.711458" stroke-miterlimit="10"/>
      <path d="M232.397 61.0253L1.26025 0.169189V121.881L232.397 61.0253Z" stroke="#CCB4FB" stroke-width="0.711458" stroke-miterlimit="10"/>
      <path d="M1.26025 61.0253L232.397 121.881V0.169189L1.26025 61.0253Z" stroke="#CCB4FB" stroke-width="0.711458" stroke-miterlimit="10"/>
    </g>
    <path d="M255.511 0.169189H232.398V12.3405H255.511V0.169189Z" stroke="#CCB4FB" stroke-width="0.711458" stroke-miterlimit="10"/>
    <path d="M278.625 0.169189H255.511V12.3405H278.625V0.169189Z" stroke="#CCB4FB" stroke-width="0.711458" stroke-miterlimit="10"/>
    <path d="M301.738 0.169189H278.625V12.3405H301.738V0.169189Z" stroke="#CCB4FB" stroke-width="0.711458" stroke-miterlimit="10"/>
    <path d="M324.852 0.169189H301.738V12.3405H324.852V0.169189Z" stroke="#CCB4FB" stroke-width="0.711458" stroke-miterlimit="10"/>
    <path d="M347.967 0.169189H324.853V12.3405H347.967V0.169189Z" stroke="#CCB4FB" stroke-width="0.711458" stroke-miterlimit="10"/>
    <path d="M371.08 0.169189H347.967V12.3405H371.08V0.169189Z" stroke="#CCB4FB" stroke-width="0.711458" stroke-miterlimit="10"/>
    <path d="M394.194 0.169189H371.08V12.3405H394.194V0.169189Z" stroke="#CCB4FB" stroke-width="0.711458" stroke-miterlimit="10"/>
    <path d="M417.307 0.169189H394.194V12.3405H417.307V0.169189Z" stroke="#CCB4FB" stroke-width="0.711458" stroke-miterlimit="10"/>
    <path d="M440.421 0.168945H417.308V12.3402H440.421V0.168945Z" stroke="#CCB4FB" stroke-width="0.711458" stroke-miterlimit="10"/>
    <path d="M463.534 0.169189H440.421V12.3405H463.534V0.169189Z" stroke="#CCB4FB" stroke-width="0.711458" stroke-miterlimit="10"/>
    <path d="M255.511 12.3403H232.398V24.5116H255.511V12.3403Z" stroke="#CCB4FB" stroke-width="0.711458" stroke-miterlimit="10"/>
    <path d="M278.625 12.3403H255.511V24.5116H278.625V12.3403Z" stroke="#CCB4FB" stroke-width="0.711458" stroke-miterlimit="10"/>
    <path d="M301.738 12.3403H278.625V24.5116H301.738V12.3403Z" stroke="#CCB4FB" stroke-width="0.711458" stroke-miterlimit="10"/>
    <path d="M324.852 12.3403H301.738V24.5116H324.852V12.3403Z" stroke="#CCB4FB" stroke-width="0.711458" stroke-miterlimit="10"/>
    <path d="M347.967 12.3403H324.853V24.5116H347.967V12.3403Z" stroke="#CCB4FB" stroke-width="0.711458" stroke-miterlimit="10"/>
    <path d="M371.08 12.3403H347.967V24.5116H371.08V12.3403Z" stroke="#CCB4FB" stroke-width="0.711458" stroke-miterlimit="10"/>
    <path d="M394.194 12.3403H371.08V24.5116H394.194V12.3403Z" stroke="#CCB4FB" stroke-width="0.711458" stroke-miterlimit="10"/>
    <path d="M417.307 12.3403H394.194V24.5116H417.307V12.3403Z" stroke="#CCB4FB" stroke-width="0.711458" stroke-miterlimit="10"/>
    <path d="M440.421 12.3403H417.308V24.5116H440.421V12.3403Z" stroke="#CCB4FB" stroke-width="0.711458" stroke-miterlimit="10"/>
    <path d="M463.534 12.3403H440.421V24.5116H463.534V12.3403Z" stroke="#CCB4FB" stroke-width="0.711458" stroke-miterlimit="10"/>
    <path d="M255.511 24.5115H232.398V36.6828H255.511V24.5115Z" stroke="#CCB4FB" stroke-width="0.711458" stroke-miterlimit="10"/>
    <path d="M278.625 24.5115H255.511V36.6828H278.625V24.5115Z" stroke="#CCB4FB" stroke-width="0.711458" stroke-miterlimit="10"/>
    <path d="M301.738 24.5115H278.625V36.6828H301.738V24.5115Z" stroke="#CCB4FB" stroke-width="0.711458" stroke-miterlimit="10"/>
    <path d="M324.852 24.5115H301.738V36.6828H324.852V24.5115Z" stroke="#CCB4FB" stroke-width="0.711458" stroke-miterlimit="10"/>
    <path d="M347.967 24.5115H324.853V36.6828H347.967V24.5115Z" stroke="#CCB4FB" stroke-width="0.711458" stroke-miterlimit="10"/>
    <path d="M371.08 24.5115H347.967V36.6828H371.08V24.5115Z" stroke="#CCB4FB" stroke-width="0.711458" stroke-miterlimit="10"/>
    <path d="M394.194 24.5115H371.08V36.6828H394.194V24.5115Z" stroke="#CCB4FB" stroke-width="0.711458" stroke-miterlimit="10"/>
    <path d="M417.307 24.5115H394.194V36.6828H417.307V24.5115Z" stroke="#CCB4FB" stroke-width="0.711458" stroke-miterlimit="10"/>
    <path d="M440.421 24.5117H417.308V36.683H440.421V24.5117Z" stroke="#CCB4FB" stroke-width="0.711458" stroke-miterlimit="10"/>
    <path d="M463.534 24.5115H440.421V36.6828H463.534V24.5115Z" stroke="#CCB4FB" stroke-width="0.711458" stroke-miterlimit="10"/>
    <path d="M255.511 36.6826H232.398V48.8539H255.511V36.6826Z" stroke="#CCB4FB" stroke-width="0.711458" stroke-miterlimit="10"/>
    <path d="M278.625 36.6826H255.511V48.8539H278.625V36.6826Z" stroke="#CCB4FB" stroke-width="0.711458" stroke-miterlimit="10"/>
    <path d="M301.738 36.6826H278.625V48.8539H301.738V36.6826Z" stroke="#CCB4FB" stroke-width="0.711458" stroke-miterlimit="10"/>
    <path d="M324.852 36.6826H301.738V48.8539H324.852V36.6826Z" stroke="#CCB4FB" stroke-width="0.711458" stroke-miterlimit="10"/>
    <path d="M347.967 36.6826H324.853V48.8539H347.967V36.6826Z" stroke="#CCB4FB" stroke-width="0.711458" stroke-miterlimit="10"/>
    <path d="M371.08 36.6826H347.967V48.8539H371.08V36.6826Z" stroke="#CCB4FB" stroke-width="0.711458" stroke-miterlimit="10"/>
    <path d="M394.194 36.6826H371.08V48.8539H394.194V36.6826Z" stroke="#CCB4FB" stroke-width="0.711458" stroke-miterlimit="10"/>
    <path d="M417.307 36.6826H394.194V48.8539H417.307V36.6826Z" stroke="#CCB4FB" stroke-width="0.711458" stroke-miterlimit="10"/>
    <path d="M440.421 36.6826H417.308V48.8539H440.421V36.6826Z" stroke="#CCB4FB" stroke-width="0.711458" stroke-miterlimit="10"/>
    <path d="M463.534 36.6826H440.421V48.8539H463.534V36.6826Z" stroke="#CCB4FB" stroke-width="0.711458" stroke-miterlimit="10"/>
    <path d="M255.511 48.8538H232.398V61.0251H255.511V48.8538Z" stroke="#CCB4FB" stroke-width="0.711458" stroke-miterlimit="10"/>
    <path d="M278.625 48.8538H255.511V61.0251H278.625V48.8538Z" stroke="#CCB4FB" stroke-width="0.711458" stroke-miterlimit="10"/>
    <path d="M301.738 48.8538H278.625V61.0251H301.738V48.8538Z" stroke="#CCB4FB" stroke-width="0.711458" stroke-miterlimit="10"/>
    <path d="M324.852 48.8538H301.738V61.0251H324.852V48.8538Z" stroke="#CCB4FB" stroke-width="0.711458" stroke-miterlimit="10"/>
    <path d="M347.967 48.8538H324.853V61.0251H347.967V48.8538Z" stroke="#CCB4FB" stroke-width="0.711458" stroke-miterlimit="10"/>
    <path d="M371.08 48.8538H347.967V61.0251H371.08V48.8538Z" stroke="#CCB4FB" stroke-width="0.711458" stroke-miterlimit="10"/>
    <path d="M394.194 48.8538H371.08V61.0251H394.194V48.8538Z" stroke="#CCB4FB" stroke-width="0.711458" stroke-miterlimit="10"/>
    <path d="M417.307 48.8538H394.194V61.0251H417.307V48.8538Z" stroke="#CCB4FB" stroke-width="0.711458" stroke-miterlimit="10"/>
    <path d="M440.421 48.854H417.308V61.0253H440.421V48.854Z" stroke="#CCB4FB" stroke-width="0.711458" stroke-miterlimit="10"/>
    <path d="M463.534 48.8538H440.421V61.0251H463.534V48.8538Z" stroke="#CCB4FB" stroke-width="0.711458" stroke-miterlimit="10"/>
    <path d="M255.511 61.0251H232.398V73.1964H255.511V61.0251Z" stroke="#CCB4FB" stroke-width="0.711458" stroke-miterlimit="10"/>
    <path d="M278.625 61.0251H255.511V73.1964H278.625V61.0251Z" stroke="#CCB4FB" stroke-width="0.711458" stroke-miterlimit="10"/>
    <path d="M301.738 61.0251H278.625V73.1964H301.738V61.0251Z" stroke="#CCB4FB" stroke-width="0.711458" stroke-miterlimit="10"/>
    <path d="M324.852 61.0251H301.738V73.1964H324.852V61.0251Z" stroke="#CCB4FB" stroke-width="0.711458" stroke-miterlimit="10"/>
    <path d="M347.967 61.0251H324.853V73.1964H347.967V61.0251Z" stroke="#CCB4FB" stroke-width="0.711458" stroke-miterlimit="10"/>
    <path d="M371.08 61.0251H347.967V73.1964H371.08V61.0251Z" stroke="#CCB4FB" stroke-width="0.711458" stroke-miterlimit="10"/>
    <path d="M394.194 61.0251H371.08V73.1964H394.194V61.0251Z" stroke="#CCB4FB" stroke-width="0.711458" stroke-miterlimit="10"/>
    <path d="M417.307 61.0251H394.194V73.1964H417.307V61.0251Z" stroke="#CCB4FB" stroke-width="0.711458" stroke-miterlimit="10"/>
    <path d="M440.421 61.0251H417.308V73.1964H440.421V61.0251Z" stroke="#CCB4FB" stroke-width="0.711458" stroke-miterlimit="10"/>
    <path d="M463.534 61.0251H440.421V73.1964H463.534V61.0251Z" stroke="#CCB4FB" stroke-width="0.711458" stroke-miterlimit="10"/>
    <path d="M255.511 73.1963H232.398V85.3676H255.511V73.1963Z" stroke="#CCB4FB" stroke-width="0.711458" stroke-miterlimit="10"/>
    <path d="M278.625 73.1963H255.511V85.3676H278.625V73.1963Z" stroke="#CCB4FB" stroke-width="0.711458" stroke-miterlimit="10"/>
    <path d="M301.738 73.1963H278.625V85.3676H301.738V73.1963Z" stroke="#CCB4FB" stroke-width="0.711458" stroke-miterlimit="10"/>
    <path d="M324.852 73.1963H301.738V85.3676H324.852V73.1963Z" stroke="#CCB4FB" stroke-width="0.711458" stroke-miterlimit="10"/>
    <path d="M347.967 73.1963H324.853V85.3676H347.967V73.1963Z" stroke="#CCB4FB" stroke-width="0.711458" stroke-miterlimit="10"/>
    <path d="M371.08 73.1963H347.967V85.3676H371.08V73.1963Z" stroke="#CCB4FB" stroke-width="0.711458" stroke-miterlimit="10"/>
    <path d="M394.194 73.1963H371.08V85.3676H394.194V73.1963Z" stroke="#CCB4FB" stroke-width="0.711458" stroke-miterlimit="10"/>
    <path d="M417.307 73.1963H394.194V85.3676H417.307V73.1963Z" stroke="#CCB4FB" stroke-width="0.711458" stroke-miterlimit="10"/>
    <path d="M440.421 73.1963H417.308V85.3676H440.421V73.1963Z" stroke="#CCB4FB" stroke-width="0.711458" stroke-miterlimit="10"/>
    <path d="M463.534 73.1963H440.421V85.3676H463.534V73.1963Z" stroke="#CCB4FB" stroke-width="0.711458" stroke-miterlimit="10"/>
    <path d="M255.511 85.3677H232.398V97.539H255.511V85.3677Z" stroke="#CCB4FB" stroke-width="0.711458" stroke-miterlimit="10"/>
    <path d="M278.625 85.3677H255.511V97.539H278.625V85.3677Z" stroke="#CCB4FB" stroke-width="0.711458" stroke-miterlimit="10"/>
    <path d="M301.738 85.3677H278.625V97.539H301.738V85.3677Z" stroke="#CCB4FB" stroke-width="0.711458" stroke-miterlimit="10"/>
    <path d="M324.852 85.3677H301.738V97.539H324.852V85.3677Z" stroke="#CCB4FB" stroke-width="0.711458" stroke-miterlimit="10"/>
    <path d="M347.967 85.3677H324.853V97.539H347.967V85.3677Z" stroke="#CCB4FB" stroke-width="0.711458" stroke-miterlimit="10"/>
    <path d="M371.08 85.3677H347.967V97.539H371.08V85.3677Z" stroke="#CCB4FB" stroke-width="0.711458" stroke-miterlimit="10"/>
    <path d="M394.194 85.3677H371.08V97.539H394.194V85.3677Z" stroke="#CCB4FB" stroke-width="0.711458" stroke-miterlimit="10"/>
    <path d="M417.307 85.3677H394.194V97.539H417.307V85.3677Z" stroke="#CCB4FB" stroke-width="0.711458" stroke-miterlimit="10"/>
    <path d="M440.421 85.3677H417.308V97.539H440.421V85.3677Z" stroke="#CCB4FB" stroke-width="0.711458" stroke-miterlimit="10"/>
    <path d="M463.534 85.3677H440.421V97.539H463.534V85.3677Z" stroke="#CCB4FB" stroke-width="0.711458" stroke-miterlimit="10"/>
    <path d="M255.511 97.5386H232.398V109.71H255.511V97.5386Z" stroke="#CCB4FB" stroke-width="0.711458" stroke-miterlimit="10"/>
    <path d="M278.625 97.5386H255.511V109.71H278.625V97.5386Z" stroke="#CCB4FB" stroke-width="0.711458" stroke-miterlimit="10"/>
    <path d="M301.738 97.5386H278.625V109.71H301.738V97.5386Z" stroke="#CCB4FB" stroke-width="0.711458" stroke-miterlimit="10"/>
    <path d="M324.852 97.5386H301.738V109.71H324.852V97.5386Z" stroke="#CCB4FB" stroke-width="0.711458" stroke-miterlimit="10"/>
    <path d="M347.967 97.5386H324.853V109.71H347.967V97.5386Z" stroke="#CCB4FB" stroke-width="0.711458" stroke-miterlimit="10"/>
    <path d="M371.08 97.5386H347.967V109.71H371.08V97.5386Z" stroke="#CCB4FB" stroke-width="0.711458" stroke-miterlimit="10"/>
    <path d="M394.194 97.5386H371.08V109.71H394.194V97.5386Z" stroke="#CCB4FB" stroke-width="0.711458" stroke-miterlimit="10"/>
    <path d="M417.307 97.5386H394.194V109.71H417.307V97.5386Z" stroke="#CCB4FB" stroke-width="0.711458" stroke-miterlimit="10"/>
    <path d="M440.421 97.5386H417.308V109.71H440.421V97.5386Z" stroke="#CCB4FB" stroke-width="0.711458" stroke-miterlimit="10"/>
    <path d="M463.534 97.5386H440.421V109.71H463.534V97.5386Z" stroke="#CCB4FB" stroke-width="0.711458" stroke-miterlimit="10"/>
    <mask id="mask1_1_2951" style="mask-type:luminance" maskUnits="userSpaceOnUse" x="0" y="0" width="464" height="122">
      <path d="M463.897 0.050293H0.896973V122H463.897V0.050293Z" fill="white"/>
    </mask>
    <g mask="url(#mask1_1_2951)">
      <path d="M255.511 109.71H232.397V121.881H255.511V109.71Z" stroke="#CCB4FB" stroke-width="0.711458" stroke-miterlimit="10"/>
      <path d="M278.624 109.71H255.511V121.881H278.624V109.71Z" stroke="#CCB4FB" stroke-width="0.711458" stroke-miterlimit="10"/>
      <path d="M301.738 109.71H278.624V121.881H301.738V109.71Z" stroke="#CCB4FB" stroke-width="0.711458" stroke-miterlimit="10"/>
      <path d="M324.851 109.71H301.738V121.881H324.851V109.71Z" stroke="#CCB4FB" stroke-width="0.711458" stroke-miterlimit="10"/>
      <path d="M347.966 109.71H324.853V121.881H347.966V109.71Z" stroke="#CCB4FB" stroke-width="0.711458" stroke-miterlimit="10"/>
      <path d="M371.08 109.71H347.967V121.881H371.08V109.71Z" stroke="#CCB4FB" stroke-width="0.711458" stroke-miterlimit="10"/>
      <path d="M394.193 109.71H371.08V121.881H394.193V109.71Z" stroke="#CCB4FB" stroke-width="0.711458" stroke-miterlimit="10"/>
      <path d="M417.307 109.71H394.193V121.881H417.307V109.71Z" stroke="#CCB4FB" stroke-width="0.711458" stroke-miterlimit="10"/>
      <path d="M440.421 109.71H417.307V121.881H440.421V109.71Z" stroke="#CCB4FB" stroke-width="0.711458" stroke-miterlimit="10"/>
      <path d="M463.534 109.71H440.42V121.881H463.534V109.71Z" stroke="#CCB4FB" stroke-width="0.711458" stroke-miterlimit="10"/>
      <path d="M463.534 61.0253L232.398 0.169189V121.881L463.534 61.0253Z" stroke="#CCB4FB" stroke-width="0.711458" stroke-miterlimit="10"/>
      <path d="M232.398 61.0253L463.534 121.881V0.169189L232.398 61.0253Z" stroke="#CCB4FB" stroke-width="0.711458" stroke-miterlimit="10"/>
    </g>
  </g>
  <defs>
    <clipPath id="clip0_1_2951">
      <rect width="463" height="122" fill="white" transform="translate(0.897949)"/>
    </clipPath>
  </defs>
</svg>