<svg width="1671" height="180" viewBox="0 0 1671 180" fill="none" xmlns="http://www.w3.org/2000/svg">
<g clip-path="url(#clip0_1_7978)">
<path d="M1666.28 19.4396V1.70654L1500.12 1.70654V19.4396L1666.28 19.4396Z" stroke="#CCB4FB" stroke-width="0.711458" stroke-miterlimit="10"/>
<path d="M1666.28 37.173V19.4399L1500.12 19.4399V37.173L1666.28 37.173Z" stroke="#CCB4FB" stroke-width="0.711458" stroke-miterlimit="10"/>
<path d="M1666.28 54.9072V37.1742L1500.12 37.1742V54.9072L1666.28 54.9072Z" stroke="#CCB4FB" stroke-width="0.711458" stroke-miterlimit="10"/>
<path d="M1666.28 72.64V54.907L1500.12 54.907V72.64L1666.28 72.64Z" stroke="#CCB4FB" stroke-width="0.711458" stroke-miterlimit="10"/>
<path d="M1666.28 90.3718V72.6388L1500.12 72.6388V90.3718L1666.28 90.3718Z" stroke="#CCB4FB" stroke-width="0.711458" stroke-miterlimit="10"/>
<path d="M1666.28 108.105V90.3721L1500.12 90.3721V108.105L1666.28 108.105Z" stroke="#CCB4FB" stroke-width="0.711458" stroke-miterlimit="10"/>
<path d="M1666.28 125.838V108.105L1500.12 108.105V125.838L1666.28 125.838Z" stroke="#CCB4FB" stroke-width="0.711458" stroke-miterlimit="10"/>
<path d="M1666.28 143.572V125.839L1500.12 125.839V143.572H1666.28Z" stroke="#CCB4FB" stroke-width="0.711458" stroke-miterlimit="10"/>
<path d="M1666.28 161.304V143.571H1500.12V161.304H1666.28Z" stroke="#CCB4FB" stroke-width="0.711458" stroke-miterlimit="10"/>
<path d="M1666.28 179.037V161.304H1500.12V179.037H1666.28Z" stroke="#CCB4FB" stroke-width="0.711458" stroke-miterlimit="10"/>
<path d="M1500.12 19.4396V1.70654L1333.97 1.70654V19.4396L1500.12 19.4396Z" stroke="#CCB4FB" stroke-width="0.711458" stroke-miterlimit="10"/>
<path d="M1500.12 37.173V19.4399L1333.97 19.4399V37.173L1500.12 37.173Z" stroke="#CCB4FB" stroke-width="0.711458" stroke-miterlimit="10"/>
<path d="M1500.12 54.9074V37.1743L1333.97 37.1743V54.9074L1500.12 54.9074Z" stroke="#CCB4FB" stroke-width="0.711458" stroke-miterlimit="10"/>
<path d="M1500.12 72.6398V54.9067L1333.97 54.9067V72.6398L1500.12 72.6398Z" stroke="#CCB4FB" stroke-width="0.711458" stroke-miterlimit="10"/>
<path d="M1500.12 90.3717V72.6387L1333.97 72.6387V90.3717L1500.12 90.3717Z" stroke="#CCB4FB" stroke-width="0.711458" stroke-miterlimit="10"/>
<path d="M1500.12 108.105V90.3721L1333.97 90.3721V108.105L1500.12 108.105Z" stroke="#CCB4FB" stroke-width="0.711458" stroke-miterlimit="10"/>
<path d="M1500.12 125.839V108.105L1333.97 108.105V125.839L1500.12 125.839Z" stroke="#CCB4FB" stroke-width="0.711458" stroke-miterlimit="10"/>
<path d="M1500.12 143.572V125.839L1333.97 125.839V143.572H1500.12Z" stroke="#CCB4FB" stroke-width="0.711458" stroke-miterlimit="10"/>
<path d="M1500.12 161.304V143.571H1333.97V161.304H1500.12Z" stroke="#CCB4FB" stroke-width="0.711458" stroke-miterlimit="10"/>
<path d="M1500.12 179.037V161.304H1333.97V179.037H1500.12Z" stroke="#CCB4FB" stroke-width="0.711458" stroke-miterlimit="10"/>
<path d="M1333.97 19.4396V1.70654L1167.81 1.70654V19.4396L1333.97 19.4396Z" stroke="#CCB4FB" stroke-width="0.711458" stroke-miterlimit="10"/>
<path d="M1333.97 37.173V19.4399L1167.81 19.4399V37.173L1333.97 37.173Z" stroke="#CCB4FB" stroke-width="0.711458" stroke-miterlimit="10"/>
<path d="M1333.97 54.9074V37.1743L1167.81 37.1743V54.9074L1333.97 54.9074Z" stroke="#CCB4FB" stroke-width="0.711458" stroke-miterlimit="10"/>
<path d="M1333.97 72.6398V54.9067L1167.81 54.9067V72.6398L1333.97 72.6398Z" stroke="#CCB4FB" stroke-width="0.711458" stroke-miterlimit="10"/>
<path d="M1333.97 90.3717V72.6387L1167.81 72.6387V90.3717L1333.97 90.3717Z" stroke="#CCB4FB" stroke-width="0.711458" stroke-miterlimit="10"/>
<path d="M1333.97 108.105V90.3721L1167.81 90.3721V108.105L1333.97 108.105Z" stroke="#CCB4FB" stroke-width="0.711458" stroke-miterlimit="10"/>
<path d="M1333.97 125.839V108.105L1167.81 108.105V125.839L1333.97 125.839Z" stroke="#CCB4FB" stroke-width="0.711458" stroke-miterlimit="10"/>
<path d="M1333.97 143.572V125.839L1167.81 125.839V143.572H1333.97Z" stroke="#CCB4FB" stroke-width="0.711458" stroke-miterlimit="10"/>
<path d="M1333.97 161.304V143.571H1167.81V161.304H1333.97Z" stroke="#CCB4FB" stroke-width="0.711458" stroke-miterlimit="10"/>
<path d="M1333.97 179.037V161.304H1167.81V179.037H1333.97Z" stroke="#CCB4FB" stroke-width="0.711458" stroke-miterlimit="10"/>
<path d="M1167.81 19.4396V1.70654L1001.65 1.70654V19.4396L1167.81 19.4396Z" stroke="#CCB4FB" stroke-width="0.711458" stroke-miterlimit="10"/>
<path d="M1167.81 37.173V19.4399L1001.65 19.4399V37.173L1167.81 37.173Z" stroke="#CCB4FB" stroke-width="0.711458" stroke-miterlimit="10"/>
<path d="M1167.81 54.9074V37.1743L1001.65 37.1743V54.9074L1167.81 54.9074Z" stroke="#CCB4FB" stroke-width="0.711458" stroke-miterlimit="10"/>
<path d="M1167.81 72.6398V54.9067L1001.65 54.9067V72.6398L1167.81 72.6398Z" stroke="#CCB4FB" stroke-width="0.711458" stroke-miterlimit="10"/>
<path d="M1167.81 90.3717V72.6387L1001.65 72.6387V90.3717L1167.81 90.3717Z" stroke="#CCB4FB" stroke-width="0.711458" stroke-miterlimit="10"/>
<path d="M1167.81 108.105V90.3721L1001.65 90.3721V108.105L1167.81 108.105Z" stroke="#CCB4FB" stroke-width="0.711458" stroke-miterlimit="10"/>
<path d="M1167.81 125.839V108.105L1001.65 108.105V125.839L1167.81 125.839Z" stroke="#CCB4FB" stroke-width="0.711458" stroke-miterlimit="10"/>
<path d="M1167.81 143.572V125.839L1001.65 125.839V143.572H1167.81Z" stroke="#CCB4FB" stroke-width="0.711458" stroke-miterlimit="10"/>
<path d="M1167.81 161.304V143.571H1001.65V161.304H1167.81Z" stroke="#CCB4FB" stroke-width="0.711458" stroke-miterlimit="10"/>
<path d="M1167.81 179.037V161.304H1001.65V179.037H1167.81Z" stroke="#CCB4FB" stroke-width="0.711458" stroke-miterlimit="10"/>
<path d="M1001.65 19.4396V1.70654L835.498 1.70654V19.4396L1001.65 19.4396Z" stroke="#CCB4FB" stroke-width="0.711458" stroke-miterlimit="10"/>
<path d="M1001.65 37.173V19.4399L835.498 19.4399V37.173L1001.65 37.173Z" stroke="#CCB4FB" stroke-width="0.711458" stroke-miterlimit="10"/>
<path d="M1001.65 54.9074V37.1743L835.498 37.1743V54.9074L1001.65 54.9074Z" stroke="#CCB4FB" stroke-width="0.711458" stroke-miterlimit="10"/>
<path d="M1001.65 72.6398V54.9067L835.498 54.9067V72.6398L1001.65 72.6398Z" stroke="#CCB4FB" stroke-width="0.711458" stroke-miterlimit="10"/>
<path d="M1001.65 90.3717V72.6387L835.498 72.6387V90.3717L1001.65 90.3717Z" stroke="#CCB4FB" stroke-width="0.711458" stroke-miterlimit="10"/>
<path d="M1001.65 108.105V90.3721L835.498 90.3721V108.105L1001.65 108.105Z" stroke="#CCB4FB" stroke-width="0.711458" stroke-miterlimit="10"/>
<path d="M1001.65 125.839V108.105L835.498 108.105V125.839L1001.65 125.839Z" stroke="#CCB4FB" stroke-width="0.711458" stroke-miterlimit="10"/>
<path d="M1001.65 143.572V125.839L835.498 125.839V143.572H1001.65Z" stroke="#CCB4FB" stroke-width="0.711458" stroke-miterlimit="10"/>
<path d="M1001.65 161.304V143.571H835.498V161.304H1001.65Z" stroke="#CCB4FB" stroke-width="0.711458" stroke-miterlimit="10"/>
<path d="M1001.65 179.037V161.304H835.498V179.037H1001.65Z" stroke="#CCB4FB" stroke-width="0.711458" stroke-miterlimit="10"/>
<path d="M835.498 19.4398V1.70679L669.342 1.70679V19.4398L835.498 19.4398Z" stroke="#CCB4FB" stroke-width="0.711458" stroke-miterlimit="10"/>
<path d="M835.498 37.1729V19.4398L669.342 19.4398V37.1729L835.498 37.1729Z" stroke="#CCB4FB" stroke-width="0.711458" stroke-miterlimit="10"/>
<path d="M835.498 54.9071V37.1741L669.342 37.1741V54.9071L835.498 54.9071Z" stroke="#CCB4FB" stroke-width="0.711458" stroke-miterlimit="10"/>
<path d="M835.498 72.6402V54.9071L669.342 54.9071V72.6402L835.498 72.6402Z" stroke="#CCB4FB" stroke-width="0.711458" stroke-miterlimit="10"/>
<path d="M835.498 90.3718V72.6388L669.342 72.6388V90.3718L835.498 90.3718Z" stroke="#CCB4FB" stroke-width="0.711458" stroke-miterlimit="10"/>
<path d="M835.498 108.105V90.3721L669.342 90.3721V108.105L835.498 108.105Z" stroke="#CCB4FB" stroke-width="0.711458" stroke-miterlimit="10"/>
<path d="M835.498 125.838V108.105L669.342 108.105V125.838L835.498 125.838Z" stroke="#CCB4FB" stroke-width="0.711458" stroke-miterlimit="10"/>
<path d="M835.498 143.572V125.839L669.342 125.839V143.572H835.498Z" stroke="#CCB4FB" stroke-width="0.711458" stroke-miterlimit="10"/>
<path d="M835.498 161.304V143.571H669.342V161.304H835.498Z" stroke="#CCB4FB" stroke-width="0.711458" stroke-miterlimit="10"/>
<path d="M835.498 179.037V161.304H669.342V179.037H835.498Z" stroke="#CCB4FB" stroke-width="0.711458" stroke-miterlimit="10"/>
<path d="M669.342 19.4396V1.70654L503.186 1.70654V19.4396L669.342 19.4396Z" stroke="#CCB4FB" stroke-width="0.711458" stroke-miterlimit="10"/>
<path d="M669.342 37.173V19.4399L503.186 19.4399V37.173L669.342 37.173Z" stroke="#CCB4FB" stroke-width="0.711458" stroke-miterlimit="10"/>
<path d="M669.342 54.9074V37.1743L503.186 37.1743V54.9074L669.342 54.9074Z" stroke="#CCB4FB" stroke-width="0.711458" stroke-miterlimit="10"/>
<path d="M669.342 72.6398V54.9067L503.186 54.9067V72.6398L669.342 72.6398Z" stroke="#CCB4FB" stroke-width="0.711458" stroke-miterlimit="10"/>
<path d="M669.342 90.3717V72.6387L503.186 72.6387V90.3717L669.342 90.3717Z" stroke="#CCB4FB" stroke-width="0.711458" stroke-miterlimit="10"/>
<path d="M669.342 108.105V90.3721L503.186 90.3721V108.105L669.342 108.105Z" stroke="#CCB4FB" stroke-width="0.711458" stroke-miterlimit="10"/>
<path d="M669.342 125.839V108.105L503.186 108.105V125.839L669.342 125.839Z" stroke="#CCB4FB" stroke-width="0.711458" stroke-miterlimit="10"/>
<path d="M669.342 143.572V125.839L503.186 125.839V143.572H669.342Z" stroke="#CCB4FB" stroke-width="0.711458" stroke-miterlimit="10"/>
<path d="M669.342 161.304V143.571H503.186V161.304H669.342Z" stroke="#CCB4FB" stroke-width="0.711458" stroke-miterlimit="10"/>
<path d="M669.342 179.037V161.304H503.186V179.037H669.342Z" stroke="#CCB4FB" stroke-width="0.711458" stroke-miterlimit="10"/>
<path d="M503.188 19.4396V1.70654L337.031 1.70654V19.4396L503.188 19.4396Z" stroke="#CCB4FB" stroke-width="0.711458" stroke-miterlimit="10"/>
<path d="M503.188 37.173V19.4399L337.031 19.4399V37.173L503.188 37.173Z" stroke="#CCB4FB" stroke-width="0.711458" stroke-miterlimit="10"/>
<path d="M503.188 54.9074V37.1743L337.031 37.1743V54.9074L503.188 54.9074Z" stroke="#CCB4FB" stroke-width="0.711458" stroke-miterlimit="10"/>
<path d="M503.188 72.6398V54.9067L337.031 54.9067V72.6398L503.188 72.6398Z" stroke="#CCB4FB" stroke-width="0.711458" stroke-miterlimit="10"/>
<path d="M503.188 90.3717V72.6387L337.031 72.6387V90.3717L503.188 90.3717Z" stroke="#CCB4FB" stroke-width="0.711458" stroke-miterlimit="10"/>
<path d="M503.188 108.105V90.3721L337.031 90.3721V108.105L503.188 108.105Z" stroke="#CCB4FB" stroke-width="0.711458" stroke-miterlimit="10"/>
<path d="M503.188 125.839V108.105L337.031 108.105V125.839L503.188 125.839Z" stroke="#CCB4FB" stroke-width="0.711458" stroke-miterlimit="10"/>
<path d="M503.188 143.572V125.839L337.031 125.839V143.572H503.188Z" stroke="#CCB4FB" stroke-width="0.711458" stroke-miterlimit="10"/>
<path d="M503.188 161.304V143.571H337.031V161.304H503.188Z" stroke="#CCB4FB" stroke-width="0.711458" stroke-miterlimit="10"/>
<path d="M503.188 179.037V161.304H337.031V179.037H503.188Z" stroke="#CCB4FB" stroke-width="0.711458" stroke-miterlimit="10"/>
<path d="M337.029 19.4396V1.70654L170.873 1.70654V19.4396L337.029 19.4396Z" stroke="#CCB4FB" stroke-width="0.711458" stroke-miterlimit="10"/>
<path d="M337.029 37.173V19.4399L170.873 19.4399V37.173L337.029 37.173Z" stroke="#CCB4FB" stroke-width="0.711458" stroke-miterlimit="10"/>
<path d="M337.029 54.9074V37.1743L170.873 37.1743V54.9074L337.029 54.9074Z" stroke="#CCB4FB" stroke-width="0.711458" stroke-miterlimit="10"/>
<path d="M337.029 72.6398V54.9067L170.873 54.9067V72.6398L337.029 72.6398Z" stroke="#CCB4FB" stroke-width="0.711458" stroke-miterlimit="10"/>
<path d="M337.029 90.3717V72.6387L170.873 72.6387V90.3717L337.029 90.3717Z" stroke="#CCB4FB" stroke-width="0.711458" stroke-miterlimit="10"/>
<path d="M337.029 108.105V90.3721L170.873 90.3721V108.105L337.029 108.105Z" stroke="#CCB4FB" stroke-width="0.711458" stroke-miterlimit="10"/>
<path d="M337.029 125.839V108.105L170.873 108.105V125.839L337.029 125.839Z" stroke="#CCB4FB" stroke-width="0.711458" stroke-miterlimit="10"/>
<path d="M337.029 143.572V125.839L170.873 125.839V143.572H337.029Z" stroke="#CCB4FB" stroke-width="0.711458" stroke-miterlimit="10"/>
<path d="M337.029 161.304V143.571H170.873V161.304H337.029Z" stroke="#CCB4FB" stroke-width="0.711458" stroke-miterlimit="10"/>
<path d="M337.029 179.037V161.304H170.873V179.037H337.029Z" stroke="#CCB4FB" stroke-width="0.711458" stroke-miterlimit="10"/>
<mask id="mask0_1_7978" style="mask-type:luminance" maskUnits="userSpaceOnUse" x="0" y="0" width="1671" height="180">
<path d="M1671 179.872V0.87207L0 0.87207V179.872L1671 179.872Z" fill="white"/>
</mask>
<g mask="url(#mask0_1_7978)">
<path d="M170.875 19.4398V1.70679L4.71896 1.70679V19.4398L170.875 19.4398Z" stroke="#CCB4FB" stroke-width="0.711458" stroke-miterlimit="10"/>
<path d="M170.875 37.1732V19.4402L4.71896 19.4402V37.1732L170.875 37.1732Z" stroke="#CCB4FB" stroke-width="0.711458" stroke-miterlimit="10"/>
<path d="M170.875 54.9071V37.1741L4.71896 37.1741V54.9071L170.875 54.9071Z" stroke="#CCB4FB" stroke-width="0.711458" stroke-miterlimit="10"/>
<path d="M170.875 72.64V54.907L4.71896 54.907V72.64L170.875 72.64Z" stroke="#CCB4FB" stroke-width="0.711458" stroke-miterlimit="10"/>
<path d="M170.875 90.372V72.6389L4.71896 72.6389V90.372L170.875 90.372Z" stroke="#CCB4FB" stroke-width="0.711458" stroke-miterlimit="10"/>
<path d="M170.875 108.105V90.3723L4.71896 90.3723V108.105L170.875 108.105Z" stroke="#CCB4FB" stroke-width="0.711458" stroke-miterlimit="10"/>
<path d="M170.875 125.838V108.105L4.71896 108.105V125.838L170.875 125.838Z" stroke="#CCB4FB" stroke-width="0.711458" stroke-miterlimit="10"/>
<path d="M170.875 143.572V125.839L4.71896 125.839V143.572H170.875Z" stroke="#CCB4FB" stroke-width="0.711458" stroke-miterlimit="10"/>
<path d="M170.875 161.304V143.571H4.71896V161.304H170.875Z" stroke="#CCB4FB" stroke-width="0.711458" stroke-miterlimit="10"/>
<path d="M170.875 179.037V161.304H4.71896V179.037H170.875Z" stroke="#CCB4FB" stroke-width="0.711458" stroke-miterlimit="10"/>
<path d="M835.5 179.037L1666.25 1.70776L4.72027 1.70776L835.5 179.037Z" stroke="#CCB4FB" stroke-width="0.711458" stroke-miterlimit="10"/>
<path d="M835.5 1.70679L4.72027 179.036L1666.25 179.036L835.5 1.70679Z" stroke="#CCB4FB" stroke-width="0.711458" stroke-miterlimit="10"/>
</g>
</g>
<defs>
<clipPath id="clip0_1_7978">
<rect width="1671" height="179" fill="white" transform="translate(0 0.87207)"/>
</clipPath>
</defs>
</svg>
