<svg width="1404" height="371" viewBox="0 0 1404 371" fill="none" xmlns="http://www.w3.org/2000/svg">
<g clip-path="url(#clip0_1_7715)">
<path d="M71.1906 0.514648H1.10156V37.5273H71.1906V0.514648Z" stroke="#CCB4FB" stroke-width="0.711458" stroke-miterlimit="10"/>
<path d="M141.278 0.514648H71.1895V37.5273H141.278V0.514648Z" stroke="#CCB4FB" stroke-width="0.711458" stroke-miterlimit="10"/>
<path d="M211.37 0.514648H141.281V37.5273H211.37V0.514648Z" stroke="#CCB4FB" stroke-width="0.711458" stroke-miterlimit="10"/>
<path d="M281.458 0.514648H211.369V37.5273H281.458V0.514648Z" stroke="#CCB4FB" stroke-width="0.711458" stroke-miterlimit="10"/>
<path d="M351.554 0.514648H281.465V37.5273H351.554V0.514648Z" stroke="#CCB4FB" stroke-width="0.711458" stroke-miterlimit="10"/>
<path d="M421.642 0.514648H351.553V37.5273H421.642V0.514648Z" stroke="#CCB4FB" stroke-width="0.711458" stroke-miterlimit="10"/>
<path d="M491.732 0.514648H421.643V37.5273H491.732V0.514648Z" stroke="#CCB4FB" stroke-width="0.711458" stroke-miterlimit="10"/>
<path d="M561.82 0.514648H491.73V37.5273H561.82V0.514648Z" stroke="#CCB4FB" stroke-width="0.711458" stroke-miterlimit="10"/>
<path d="M631.911 0.514648H561.822V37.5273H631.911V0.514648Z" stroke="#CCB4FB" stroke-width="0.711458" stroke-miterlimit="10"/>
<path d="M701.999 0.514648H631.91V37.5273H701.999V0.514648Z" stroke="#CCB4FB" stroke-width="0.711458" stroke-miterlimit="10"/>
<path d="M71.1906 37.5269H1.10156V74.5396H71.1906V37.5269Z" stroke="#CCB4FB" stroke-width="0.711458" stroke-miterlimit="10"/>
<path d="M141.278 37.5269H71.1895V74.5396H141.278V37.5269Z" stroke="#CCB4FB" stroke-width="0.711458" stroke-miterlimit="10"/>
<path d="M211.37 37.5269H141.281V74.5396H211.37V37.5269Z" stroke="#CCB4FB" stroke-width="0.711458" stroke-miterlimit="10"/>
<path d="M281.458 37.5269H211.369V74.5396H281.458V37.5269Z" stroke="#CCB4FB" stroke-width="0.711458" stroke-miterlimit="10"/>
<path d="M351.554 37.5269H281.465V74.5396H351.554V37.5269Z" stroke="#CCB4FB" stroke-width="0.711458" stroke-miterlimit="10"/>
<path d="M421.642 37.5269H351.553V74.5396H421.642V37.5269Z" stroke="#CCB4FB" stroke-width="0.711458" stroke-miterlimit="10"/>
<path d="M491.732 37.5269H421.643V74.5396H491.732V37.5269Z" stroke="#CCB4FB" stroke-width="0.711458" stroke-miterlimit="10"/>
<path d="M561.82 37.5269H491.73V74.5396H561.82V37.5269Z" stroke="#CCB4FB" stroke-width="0.711458" stroke-miterlimit="10"/>
<path d="M631.911 37.5269H561.822V74.5396H631.911V37.5269Z" stroke="#CCB4FB" stroke-width="0.711458" stroke-miterlimit="10"/>
<path d="M701.999 37.5269H631.91V74.5396H701.999V37.5269Z" stroke="#CCB4FB" stroke-width="0.711458" stroke-miterlimit="10"/>
<path d="M71.1906 74.5396H1.10156V111.552H71.1906V74.5396Z" stroke="#CCB4FB" stroke-width="0.711458" stroke-miterlimit="10"/>
<path d="M141.278 74.5396H71.1895V111.552H141.278V74.5396Z" stroke="#CCB4FB" stroke-width="0.711458" stroke-miterlimit="10"/>
<path d="M211.37 74.5396H141.281V111.552H211.37V74.5396Z" stroke="#CCB4FB" stroke-width="0.711458" stroke-miterlimit="10"/>
<path d="M281.458 74.5396H211.369V111.552H281.458V74.5396Z" stroke="#CCB4FB" stroke-width="0.711458" stroke-miterlimit="10"/>
<path d="M351.554 74.5396H281.465V111.552H351.554V74.5396Z" stroke="#CCB4FB" stroke-width="0.711458" stroke-miterlimit="10"/>
<path d="M421.642 74.5396H351.553V111.552H421.642V74.5396Z" stroke="#CCB4FB" stroke-width="0.711458" stroke-miterlimit="10"/>
<path d="M491.732 74.5396H421.643V111.552H491.732V74.5396Z" stroke="#CCB4FB" stroke-width="0.711458" stroke-miterlimit="10"/>
<path d="M561.82 74.5396H491.73V111.552H561.82V74.5396Z" stroke="#CCB4FB" stroke-width="0.711458" stroke-miterlimit="10"/>
<path d="M631.911 74.5396H561.822V111.552H631.911V74.5396Z" stroke="#CCB4FB" stroke-width="0.711458" stroke-miterlimit="10"/>
<path d="M701.999 74.5396H631.91V111.552H701.999V74.5396Z" stroke="#CCB4FB" stroke-width="0.711458" stroke-miterlimit="10"/>
<path d="M71.1906 111.551H1.10156V148.564H71.1906V111.551Z" stroke="#CCB4FB" stroke-width="0.711458" stroke-miterlimit="10"/>
<path d="M141.278 111.551H71.1895V148.564H141.278V111.551Z" stroke="#CCB4FB" stroke-width="0.711458" stroke-miterlimit="10"/>
<path d="M211.37 111.551H141.281V148.564H211.37V111.551Z" stroke="#CCB4FB" stroke-width="0.711458" stroke-miterlimit="10"/>
<path d="M281.458 111.551H211.369V148.564H281.458V111.551Z" stroke="#CCB4FB" stroke-width="0.711458" stroke-miterlimit="10"/>
<path d="M351.554 111.551H281.465V148.564H351.554V111.551Z" stroke="#CCB4FB" stroke-width="0.711458" stroke-miterlimit="10"/>
<path d="M421.642 111.551H351.553V148.564H421.642V111.551Z" stroke="#CCB4FB" stroke-width="0.711458" stroke-miterlimit="10"/>
<path d="M491.732 111.551H421.643V148.564H491.732V111.551Z" stroke="#CCB4FB" stroke-width="0.711458" stroke-miterlimit="10"/>
<path d="M561.82 111.551H491.73V148.564H561.82V111.551Z" stroke="#CCB4FB" stroke-width="0.711458" stroke-miterlimit="10"/>
<path d="M631.911 111.551H561.822V148.564H631.911V111.551Z" stroke="#CCB4FB" stroke-width="0.711458" stroke-miterlimit="10"/>
<path d="M701.999 111.551H631.91V148.564H701.999V111.551Z" stroke="#CCB4FB" stroke-width="0.711458" stroke-miterlimit="10"/>
<path d="M71.1906 148.564H1.10156V185.577H71.1906V148.564Z" stroke="#CCB4FB" stroke-width="0.711458" stroke-miterlimit="10"/>
<path d="M141.278 148.564H71.1895V185.577H141.278V148.564Z" stroke="#CCB4FB" stroke-width="0.711458" stroke-miterlimit="10"/>
<path d="M211.37 148.564H141.281V185.577H211.37V148.564Z" stroke="#CCB4FB" stroke-width="0.711458" stroke-miterlimit="10"/>
<path d="M281.458 148.564H211.369V185.577H281.458V148.564Z" stroke="#CCB4FB" stroke-width="0.711458" stroke-miterlimit="10"/>
<path d="M351.554 148.564H281.465V185.577H351.554V148.564Z" stroke="#CCB4FB" stroke-width="0.711458" stroke-miterlimit="10"/>
<path d="M421.642 148.564H351.553V185.577H421.642V148.564Z" stroke="#CCB4FB" stroke-width="0.711458" stroke-miterlimit="10"/>
<path d="M491.732 148.564H421.643V185.577H491.732V148.564Z" stroke="#CCB4FB" stroke-width="0.711458" stroke-miterlimit="10"/>
<path d="M561.82 148.564H491.73V185.577H561.82V148.564Z" stroke="#CCB4FB" stroke-width="0.711458" stroke-miterlimit="10"/>
<path d="M631.911 148.564H561.822V185.577H631.911V148.564Z" stroke="#CCB4FB" stroke-width="0.711458" stroke-miterlimit="10"/>
<path d="M701.999 148.564H631.91V185.577H701.999V148.564Z" stroke="#CCB4FB" stroke-width="0.711458" stroke-miterlimit="10"/>
<path d="M71.1906 185.577H1.10156V222.589H71.1906V185.577Z" stroke="#CCB4FB" stroke-width="0.711458" stroke-miterlimit="10"/>
<path d="M141.278 185.577H71.1895V222.589H141.278V185.577Z" stroke="#CCB4FB" stroke-width="0.711458" stroke-miterlimit="10"/>
<path d="M211.37 185.577H141.281V222.589H211.37V185.577Z" stroke="#CCB4FB" stroke-width="0.711458" stroke-miterlimit="10"/>
<path d="M281.458 185.577H211.369V222.589H281.458V185.577Z" stroke="#CCB4FB" stroke-width="0.711458" stroke-miterlimit="10"/>
<path d="M351.554 185.577H281.465V222.589H351.554V185.577Z" stroke="#CCB4FB" stroke-width="0.711458" stroke-miterlimit="10"/>
<path d="M421.642 185.577H351.553V222.589H421.642V185.577Z" stroke="#CCB4FB" stroke-width="0.711458" stroke-miterlimit="10"/>
<path d="M491.732 185.577H421.643V222.589H491.732V185.577Z" stroke="#CCB4FB" stroke-width="0.711458" stroke-miterlimit="10"/>
<path d="M561.82 185.577H491.73V222.589H561.82V185.577Z" stroke="#CCB4FB" stroke-width="0.711458" stroke-miterlimit="10"/>
<path d="M631.911 185.577H561.822V222.589H631.911V185.577Z" stroke="#CCB4FB" stroke-width="0.711458" stroke-miterlimit="10"/>
<path d="M701.999 185.577H631.91V222.589H701.999V185.577Z" stroke="#CCB4FB" stroke-width="0.711458" stroke-miterlimit="10"/>
<path d="M71.1906 222.589H1.10156V259.602H71.1906V222.589Z" stroke="#CCB4FB" stroke-width="0.711458" stroke-miterlimit="10"/>
<path d="M141.278 222.589H71.1895V259.602H141.278V222.589Z" stroke="#CCB4FB" stroke-width="0.711458" stroke-miterlimit="10"/>
<path d="M211.37 222.589H141.281V259.602H211.37V222.589Z" stroke="#CCB4FB" stroke-width="0.711458" stroke-miterlimit="10"/>
<path d="M281.458 222.589H211.369V259.602H281.458V222.589Z" stroke="#CCB4FB" stroke-width="0.711458" stroke-miterlimit="10"/>
<path d="M351.554 222.589H281.465V259.602H351.554V222.589Z" stroke="#CCB4FB" stroke-width="0.711458" stroke-miterlimit="10"/>
<path d="M421.642 222.589H351.553V259.602H421.642V222.589Z" stroke="#CCB4FB" stroke-width="0.711458" stroke-miterlimit="10"/>
<path d="M491.732 222.589H421.643V259.602H491.732V222.589Z" stroke="#CCB4FB" stroke-width="0.711458" stroke-miterlimit="10"/>
<path d="M561.82 222.589H491.73V259.602H561.82V222.589Z" stroke="#CCB4FB" stroke-width="0.711458" stroke-miterlimit="10"/>
<path d="M631.911 222.589H561.822V259.602H631.911V222.589Z" stroke="#CCB4FB" stroke-width="0.711458" stroke-miterlimit="10"/>
<path d="M701.999 222.589H631.91V259.602H701.999V222.589Z" stroke="#CCB4FB" stroke-width="0.711458" stroke-miterlimit="10"/>
<path d="M71.1906 259.602H1.10156V296.615H71.1906V259.602Z" stroke="#CCB4FB" stroke-width="0.711458" stroke-miterlimit="10"/>
<path d="M141.278 259.602H71.1895V296.615H141.278V259.602Z" stroke="#CCB4FB" stroke-width="0.711458" stroke-miterlimit="10"/>
<path d="M211.37 259.602H141.281V296.615H211.37V259.602Z" stroke="#CCB4FB" stroke-width="0.711458" stroke-miterlimit="10"/>
<path d="M281.458 259.602H211.369V296.615H281.458V259.602Z" stroke="#CCB4FB" stroke-width="0.711458" stroke-miterlimit="10"/>
<path d="M351.554 259.602H281.465V296.615H351.554V259.602Z" stroke="#CCB4FB" stroke-width="0.711458" stroke-miterlimit="10"/>
<path d="M421.642 259.602H351.553V296.615H421.642V259.602Z" stroke="#CCB4FB" stroke-width="0.711458" stroke-miterlimit="10"/>
<path d="M491.732 259.602H421.643V296.615H491.732V259.602Z" stroke="#CCB4FB" stroke-width="0.711458" stroke-miterlimit="10"/>
<path d="M561.82 259.602H491.73V296.615H561.82V259.602Z" stroke="#CCB4FB" stroke-width="0.711458" stroke-miterlimit="10"/>
<path d="M631.911 259.602H561.822V296.615H631.911V259.602Z" stroke="#CCB4FB" stroke-width="0.711458" stroke-miterlimit="10"/>
<path d="M701.999 259.602H631.91V296.615H701.999V259.602Z" stroke="#CCB4FB" stroke-width="0.711458" stroke-miterlimit="10"/>
<path d="M71.1906 296.614H1.10156V333.626H71.1906V296.614Z" stroke="#CCB4FB" stroke-width="0.711458" stroke-miterlimit="10"/>
<path d="M141.278 296.614H71.1895V333.626H141.278V296.614Z" stroke="#CCB4FB" stroke-width="0.711458" stroke-miterlimit="10"/>
<path d="M211.37 296.614H141.281V333.626H211.37V296.614Z" stroke="#CCB4FB" stroke-width="0.711458" stroke-miterlimit="10"/>
<path d="M281.458 296.614H211.369V333.626H281.458V296.614Z" stroke="#CCB4FB" stroke-width="0.711458" stroke-miterlimit="10"/>
<path d="M351.554 296.614H281.465V333.626H351.554V296.614Z" stroke="#CCB4FB" stroke-width="0.711458" stroke-miterlimit="10"/>
<path d="M421.642 296.614H351.553V333.626H421.642V296.614Z" stroke="#CCB4FB" stroke-width="0.711458" stroke-miterlimit="10"/>
<path d="M491.732 296.614H421.643V333.626H491.732V296.614Z" stroke="#CCB4FB" stroke-width="0.711458" stroke-miterlimit="10"/>
<path d="M561.82 296.614H491.73V333.626H561.82V296.614Z" stroke="#CCB4FB" stroke-width="0.711458" stroke-miterlimit="10"/>
<path d="M631.911 296.614H561.822V333.626H631.911V296.614Z" stroke="#CCB4FB" stroke-width="0.711458" stroke-miterlimit="10"/>
<path d="M701.999 296.614H631.91V333.626H701.999V296.614Z" stroke="#CCB4FB" stroke-width="0.711458" stroke-miterlimit="10"/>
<mask id="mask0_1_7715" style="mask-type:luminance" maskUnits="userSpaceOnUse" x="-1" y="0" width="1405" height="372">
<path d="M1404 0.15332H-0.00195312V371H1404V0.15332Z" fill="white"/>
</mask>
<g mask="url(#mask0_1_7715)">
<path d="M71.1887 333.627H1.09961V370.639H71.1887V333.627Z" stroke="#CCB4FB" stroke-width="0.711458" stroke-miterlimit="10"/>
<path d="M141.278 333.626H71.1895V370.639H141.278V333.626Z" stroke="#CCB4FB" stroke-width="0.711458" stroke-miterlimit="10"/>
<path d="M211.368 333.626H141.279V370.639H211.368V333.626Z" stroke="#CCB4FB" stroke-width="0.711458" stroke-miterlimit="10"/>
<path d="M281.456 333.626H211.367V370.639H281.456V333.626Z" stroke="#CCB4FB" stroke-width="0.711458" stroke-miterlimit="10"/>
<path d="M351.552 333.627H281.463V370.639H351.552V333.627Z" stroke="#CCB4FB" stroke-width="0.711458" stroke-miterlimit="10"/>
<path d="M421.642 333.626H351.553V370.639H421.642V333.626Z" stroke="#CCB4FB" stroke-width="0.711458" stroke-miterlimit="10"/>
<path d="M491.73 333.627H421.641V370.639H491.73V333.627Z" stroke="#CCB4FB" stroke-width="0.711458" stroke-miterlimit="10"/>
<path d="M561.82 333.626H491.73V370.639H561.82V333.626Z" stroke="#CCB4FB" stroke-width="0.711458" stroke-miterlimit="10"/>
<path d="M631.909 333.627H561.82V370.639H631.909V333.627Z" stroke="#CCB4FB" stroke-width="0.711458" stroke-miterlimit="10"/>
<path d="M701.997 333.626H631.908V370.639H701.997V333.626Z" stroke="#CCB4FB" stroke-width="0.711458" stroke-miterlimit="10"/>
<path d="M701.999 185.577L1.09961 0.514538V370.637L701.999 185.577Z" stroke="#CCB4FB" stroke-width="0.711458" stroke-miterlimit="10"/>
<path d="M1.09961 185.577L701.999 370.637V0.514538L1.09961 185.577Z" stroke="#CCB4FB" stroke-width="0.711458" stroke-miterlimit="10"/>
</g>
<path d="M772.089 0.514534H702V37.5272H772.089V0.514534Z" stroke="#CCB4FB" stroke-width="0.711458" stroke-miterlimit="10"/>
<path d="M842.179 0.514648H772.09V37.5273H842.179V0.514648Z" stroke="#CCB4FB" stroke-width="0.711458" stroke-miterlimit="10"/>
<path d="M912.269 0.514648H842.18V37.5273H912.269V0.514648Z" stroke="#CCB4FB" stroke-width="0.711458" stroke-miterlimit="10"/>
<path d="M982.357 0.514648H912.268V37.5273H982.357V0.514648Z" stroke="#CCB4FB" stroke-width="0.711458" stroke-miterlimit="10"/>
<path d="M1052.45 0.514648H982.363V37.5273H1052.45V0.514648Z" stroke="#CCB4FB" stroke-width="0.711458" stroke-miterlimit="10"/>
<path d="M1122.54 0.514648H1052.45V37.5273H1122.54V0.514648Z" stroke="#CCB4FB" stroke-width="0.711458" stroke-miterlimit="10"/>
<path d="M1192.63 0.514534H1122.54V37.5272H1192.63V0.514534Z" stroke="#CCB4FB" stroke-width="0.711458" stroke-miterlimit="10"/>
<path d="M1262.72 0.514534H1192.63V37.5272H1262.72V0.514534Z" stroke="#CCB4FB" stroke-width="0.711458" stroke-miterlimit="10"/>
<path d="M1332.81 0.514648H1262.72V37.5273H1332.81V0.514648Z" stroke="#CCB4FB" stroke-width="0.711458" stroke-miterlimit="10"/>
<path d="M1402.9 0.514648H1332.81V37.5273H1402.9V0.514648Z" stroke="#CCB4FB" stroke-width="0.711458" stroke-miterlimit="10"/>
<path d="M772.089 37.527H702V74.5397H772.089V37.527Z" stroke="#CCB4FB" stroke-width="0.711458" stroke-miterlimit="10"/>
<path d="M842.179 37.5269H772.09V74.5396H842.179V37.5269Z" stroke="#CCB4FB" stroke-width="0.711458" stroke-miterlimit="10"/>
<path d="M912.269 37.5269H842.18V74.5396H912.269V37.5269Z" stroke="#CCB4FB" stroke-width="0.711458" stroke-miterlimit="10"/>
<path d="M982.357 37.5269H912.268V74.5396H982.357V37.5269Z" stroke="#CCB4FB" stroke-width="0.711458" stroke-miterlimit="10"/>
<path d="M1052.45 37.5269H982.363V74.5396H1052.45V37.5269Z" stroke="#CCB4FB" stroke-width="0.711458" stroke-miterlimit="10"/>
<path d="M1122.54 37.5269H1052.45V74.5396H1122.54V37.5269Z" stroke="#CCB4FB" stroke-width="0.711458" stroke-miterlimit="10"/>
<path d="M1192.63 37.527H1122.54V74.5397H1192.63V37.527Z" stroke="#CCB4FB" stroke-width="0.711458" stroke-miterlimit="10"/>
<path d="M1262.72 37.527H1192.63V74.5397H1262.72V37.527Z" stroke="#CCB4FB" stroke-width="0.711458" stroke-miterlimit="10"/>
<path d="M1332.81 37.5269H1262.72V74.5396H1332.81V37.5269Z" stroke="#CCB4FB" stroke-width="0.711458" stroke-miterlimit="10"/>
<path d="M1402.9 37.5269H1332.81V74.5396H1402.9V37.5269Z" stroke="#CCB4FB" stroke-width="0.711458" stroke-miterlimit="10"/>
<path d="M772.089 74.5397H702V111.552H772.089V74.5397Z" stroke="#CCB4FB" stroke-width="0.711458" stroke-miterlimit="10"/>
<path d="M842.179 74.5396H772.09V111.552H842.179V74.5396Z" stroke="#CCB4FB" stroke-width="0.711458" stroke-miterlimit="10"/>
<path d="M912.269 74.5396H842.18V111.552H912.269V74.5396Z" stroke="#CCB4FB" stroke-width="0.711458" stroke-miterlimit="10"/>
<path d="M982.357 74.5396H912.268V111.552H982.357V74.5396Z" stroke="#CCB4FB" stroke-width="0.711458" stroke-miterlimit="10"/>
<path d="M1052.45 74.5396H982.363V111.552H1052.45V74.5396Z" stroke="#CCB4FB" stroke-width="0.711458" stroke-miterlimit="10"/>
<path d="M1122.54 74.5396H1052.45V111.552H1122.54V74.5396Z" stroke="#CCB4FB" stroke-width="0.711458" stroke-miterlimit="10"/>
<path d="M1192.63 74.5397H1122.54V111.552H1192.63V74.5397Z" stroke="#CCB4FB" stroke-width="0.711458" stroke-miterlimit="10"/>
<path d="M1262.72 74.5397H1192.63V111.552H1262.72V74.5397Z" stroke="#CCB4FB" stroke-width="0.711458" stroke-miterlimit="10"/>
<path d="M1332.81 74.5396H1262.72V111.552H1332.81V74.5396Z" stroke="#CCB4FB" stroke-width="0.711458" stroke-miterlimit="10"/>
<path d="M1402.9 74.5396H1332.81V111.552H1402.9V74.5396Z" stroke="#CCB4FB" stroke-width="0.711458" stroke-miterlimit="10"/>
<path d="M772.089 111.551H702V148.564H772.089V111.551Z" stroke="#CCB4FB" stroke-width="0.711458" stroke-miterlimit="10"/>
<path d="M842.179 111.551H772.09V148.564H842.179V111.551Z" stroke="#CCB4FB" stroke-width="0.711458" stroke-miterlimit="10"/>
<path d="M912.269 111.551H842.18V148.564H912.269V111.551Z" stroke="#CCB4FB" stroke-width="0.711458" stroke-miterlimit="10"/>
<path d="M982.357 111.551H912.268V148.564H982.357V111.551Z" stroke="#CCB4FB" stroke-width="0.711458" stroke-miterlimit="10"/>
<path d="M1052.45 111.551H982.363V148.564H1052.45V111.551Z" stroke="#CCB4FB" stroke-width="0.711458" stroke-miterlimit="10"/>
<path d="M1122.54 111.551H1052.45V148.564H1122.54V111.551Z" stroke="#CCB4FB" stroke-width="0.711458" stroke-miterlimit="10"/>
<path d="M1192.63 111.551H1122.54V148.564H1192.63V111.551Z" stroke="#CCB4FB" stroke-width="0.711458" stroke-miterlimit="10"/>
<path d="M1262.72 111.551H1192.63V148.564H1262.72V111.551Z" stroke="#CCB4FB" stroke-width="0.711458" stroke-miterlimit="10"/>
<path d="M1332.81 111.551H1262.72V148.564H1332.81V111.551Z" stroke="#CCB4FB" stroke-width="0.711458" stroke-miterlimit="10"/>
<path d="M1402.9 111.551H1332.81V148.564H1402.9V111.551Z" stroke="#CCB4FB" stroke-width="0.711458" stroke-miterlimit="10"/>
<path d="M772.089 148.564H702V185.577H772.089V148.564Z" stroke="#CCB4FB" stroke-width="0.711458" stroke-miterlimit="10"/>
<path d="M842.179 148.564H772.09V185.577H842.179V148.564Z" stroke="#CCB4FB" stroke-width="0.711458" stroke-miterlimit="10"/>
<path d="M912.269 148.564H842.18V185.577H912.269V148.564Z" stroke="#CCB4FB" stroke-width="0.711458" stroke-miterlimit="10"/>
<path d="M982.357 148.564H912.268V185.577H982.357V148.564Z" stroke="#CCB4FB" stroke-width="0.711458" stroke-miterlimit="10"/>
<path d="M1052.45 148.564H982.363V185.577H1052.45V148.564Z" stroke="#CCB4FB" stroke-width="0.711458" stroke-miterlimit="10"/>
<path d="M1122.54 148.564H1052.45V185.577H1122.54V148.564Z" stroke="#CCB4FB" stroke-width="0.711458" stroke-miterlimit="10"/>
<path d="M1192.63 148.564H1122.54V185.577H1192.63V148.564Z" stroke="#CCB4FB" stroke-width="0.711458" stroke-miterlimit="10"/>
<path d="M1262.72 148.564H1192.63V185.577H1262.72V148.564Z" stroke="#CCB4FB" stroke-width="0.711458" stroke-miterlimit="10"/>
<path d="M1332.81 148.564H1262.72V185.577H1332.81V148.564Z" stroke="#CCB4FB" stroke-width="0.711458" stroke-miterlimit="10"/>
<path d="M1402.9 148.564H1332.81V185.577H1402.9V148.564Z" stroke="#CCB4FB" stroke-width="0.711458" stroke-miterlimit="10"/>
<path d="M772.089 185.577H702V222.589H772.089V185.577Z" stroke="#CCB4FB" stroke-width="0.711458" stroke-miterlimit="10"/>
<path d="M842.179 185.577H772.09V222.589H842.179V185.577Z" stroke="#CCB4FB" stroke-width="0.711458" stroke-miterlimit="10"/>
<path d="M912.269 185.577H842.18V222.589H912.269V185.577Z" stroke="#CCB4FB" stroke-width="0.711458" stroke-miterlimit="10"/>
<path d="M982.357 185.577H912.268V222.589H982.357V185.577Z" stroke="#CCB4FB" stroke-width="0.711458" stroke-miterlimit="10"/>
<path d="M1052.45 185.577H982.363V222.589H1052.45V185.577Z" stroke="#CCB4FB" stroke-width="0.711458" stroke-miterlimit="10"/>
<path d="M1122.54 185.577H1052.45V222.589H1122.54V185.577Z" stroke="#CCB4FB" stroke-width="0.711458" stroke-miterlimit="10"/>
<path d="M1192.63 185.577H1122.54V222.589H1192.63V185.577Z" stroke="#CCB4FB" stroke-width="0.711458" stroke-miterlimit="10"/>
<path d="M1262.72 185.577H1192.63V222.589H1262.72V185.577Z" stroke="#CCB4FB" stroke-width="0.711458" stroke-miterlimit="10"/>
<path d="M1332.81 185.577H1262.72V222.589H1332.81V185.577Z" stroke="#CCB4FB" stroke-width="0.711458" stroke-miterlimit="10"/>
<path d="M1402.9 185.577H1332.81V222.589H1402.9V185.577Z" stroke="#CCB4FB" stroke-width="0.711458" stroke-miterlimit="10"/>
<path d="M772.089 222.589H702V259.602H772.089V222.589Z" stroke="#CCB4FB" stroke-width="0.711458" stroke-miterlimit="10"/>
<path d="M842.179 222.589H772.09V259.602H842.179V222.589Z" stroke="#CCB4FB" stroke-width="0.711458" stroke-miterlimit="10"/>
<path d="M912.269 222.589H842.18V259.602H912.269V222.589Z" stroke="#CCB4FB" stroke-width="0.711458" stroke-miterlimit="10"/>
<path d="M982.357 222.589H912.268V259.602H982.357V222.589Z" stroke="#CCB4FB" stroke-width="0.711458" stroke-miterlimit="10"/>
<path d="M1052.45 222.589H982.363V259.602H1052.45V222.589Z" stroke="#CCB4FB" stroke-width="0.711458" stroke-miterlimit="10"/>
<path d="M1122.54 222.589H1052.45V259.602H1122.54V222.589Z" stroke="#CCB4FB" stroke-width="0.711458" stroke-miterlimit="10"/>
<path d="M1192.63 222.589H1122.54V259.602H1192.63V222.589Z" stroke="#CCB4FB" stroke-width="0.711458" stroke-miterlimit="10"/>
<path d="M1262.72 222.589H1192.63V259.602H1262.72V222.589Z" stroke="#CCB4FB" stroke-width="0.711458" stroke-miterlimit="10"/>
<path d="M1332.81 222.589H1262.72V259.602H1332.81V222.589Z" stroke="#CCB4FB" stroke-width="0.711458" stroke-miterlimit="10"/>
<path d="M1402.9 222.589H1332.81V259.602H1402.9V222.589Z" stroke="#CCB4FB" stroke-width="0.711458" stroke-miterlimit="10"/>
<path d="M772.089 259.602H702V296.615H772.089V259.602Z" stroke="#CCB4FB" stroke-width="0.711458" stroke-miterlimit="10"/>
<path d="M842.179 259.602H772.09V296.615H842.179V259.602Z" stroke="#CCB4FB" stroke-width="0.711458" stroke-miterlimit="10"/>
<path d="M912.269 259.602H842.18V296.615H912.269V259.602Z" stroke="#CCB4FB" stroke-width="0.711458" stroke-miterlimit="10"/>
<path d="M982.357 259.602H912.268V296.615H982.357V259.602Z" stroke="#CCB4FB" stroke-width="0.711458" stroke-miterlimit="10"/>
<path d="M1052.45 259.602H982.363V296.615H1052.45V259.602Z" stroke="#CCB4FB" stroke-width="0.711458" stroke-miterlimit="10"/>
<path d="M1122.54 259.602H1052.45V296.615H1122.54V259.602Z" stroke="#CCB4FB" stroke-width="0.711458" stroke-miterlimit="10"/>
<path d="M1192.63 259.602H1122.54V296.615H1192.63V259.602Z" stroke="#CCB4FB" stroke-width="0.711458" stroke-miterlimit="10"/>
<path d="M1262.72 259.602H1192.63V296.615H1262.72V259.602Z" stroke="#CCB4FB" stroke-width="0.711458" stroke-miterlimit="10"/>
<path d="M1332.81 259.602H1262.72V296.615H1332.81V259.602Z" stroke="#CCB4FB" stroke-width="0.711458" stroke-miterlimit="10"/>
<path d="M1402.9 259.602H1332.81V296.615H1402.9V259.602Z" stroke="#CCB4FB" stroke-width="0.711458" stroke-miterlimit="10"/>
<path d="M772.089 296.614H702V333.627H772.089V296.614Z" stroke="#CCB4FB" stroke-width="0.711458" stroke-miterlimit="10"/>
<path d="M842.179 296.614H772.09V333.626H842.179V296.614Z" stroke="#CCB4FB" stroke-width="0.711458" stroke-miterlimit="10"/>
<path d="M912.269 296.614H842.18V333.626H912.269V296.614Z" stroke="#CCB4FB" stroke-width="0.711458" stroke-miterlimit="10"/>
<path d="M982.357 296.614H912.268V333.626H982.357V296.614Z" stroke="#CCB4FB" stroke-width="0.711458" stroke-miterlimit="10"/>
<path d="M1052.45 296.614H982.363V333.626H1052.45V296.614Z" stroke="#CCB4FB" stroke-width="0.711458" stroke-miterlimit="10"/>
<path d="M1122.54 296.614H1052.45V333.626H1122.54V296.614Z" stroke="#CCB4FB" stroke-width="0.711458" stroke-miterlimit="10"/>
<path d="M1192.63 296.614H1122.54V333.627H1192.63V296.614Z" stroke="#CCB4FB" stroke-width="0.711458" stroke-miterlimit="10"/>
<path d="M1262.72 296.614H1192.63V333.627H1262.72V296.614Z" stroke="#CCB4FB" stroke-width="0.711458" stroke-miterlimit="10"/>
<path d="M1332.81 296.614H1262.72V333.626H1332.81V296.614Z" stroke="#CCB4FB" stroke-width="0.711458" stroke-miterlimit="10"/>
<path d="M1402.9 296.614H1332.81V333.626H1402.9V296.614Z" stroke="#CCB4FB" stroke-width="0.711458" stroke-miterlimit="10"/>
<mask id="mask1_1_7715" style="mask-type:luminance" maskUnits="userSpaceOnUse" x="-1" y="0" width="1405" height="372">
<path d="M1404 0.15332H-0.00195312V371H1404V0.15332Z" fill="white"/>
</mask>
<g mask="url(#mask1_1_7715)">
<path d="M772.089 333.627H702V370.639H772.089V333.627Z" stroke="#CCB4FB" stroke-width="0.711458" stroke-miterlimit="10"/>
<path d="M842.179 333.626H772.09V370.639H842.179V333.626Z" stroke="#CCB4FB" stroke-width="0.711458" stroke-miterlimit="10"/>
<path d="M912.267 333.626H842.178V370.639H912.267V333.626Z" stroke="#CCB4FB" stroke-width="0.711458" stroke-miterlimit="10"/>
<path d="M982.357 333.626H912.268V370.639H982.357V333.626Z" stroke="#CCB4FB" stroke-width="0.711458" stroke-miterlimit="10"/>
<path d="M1052.45 333.627H982.363V370.639H1052.45V333.627Z" stroke="#CCB4FB" stroke-width="0.711458" stroke-miterlimit="10"/>
<path d="M1122.54 333.626H1052.45V370.639H1122.54V333.626Z" stroke="#CCB4FB" stroke-width="0.711458" stroke-miterlimit="10"/>
<path d="M1192.63 333.627H1122.54V370.639H1192.63V333.627Z" stroke="#CCB4FB" stroke-width="0.711458" stroke-miterlimit="10"/>
<path d="M1262.72 333.626H1192.63V370.639H1262.72V333.626Z" stroke="#CCB4FB" stroke-width="0.711458" stroke-miterlimit="10"/>
<path d="M1332.81 333.626H1262.72V370.639H1332.81V333.626Z" stroke="#CCB4FB" stroke-width="0.711458" stroke-miterlimit="10"/>
<path d="M1402.9 333.626H1332.81V370.639H1402.9V333.626Z" stroke="#CCB4FB" stroke-width="0.711458" stroke-miterlimit="10"/>
<path d="M1402.9 185.577L702 0.514648V370.638L1402.9 185.577Z" stroke="#CCB4FB" stroke-width="0.711458" stroke-miterlimit="10"/>
<path d="M702 185.577L1402.9 370.638V0.514648L702 185.577Z" stroke="#CCB4FB" stroke-width="0.711458" stroke-miterlimit="10"/>
</g>
</g>
<defs>
<clipPath id="clip0_1_7715">
<rect width="1404" height="371" fill="white"/>
</clipPath>
</defs>
</svg>
