<svg width="1366" height="640" viewBox="0 0 1366 640" fill="none" xmlns="http://www.w3.org/2000/svg">
<path d="M0.177734 711.613H1365.82M0.177734 697.394H1365.82M0.177734 683.175H1365.82M0.177734 668.957H1365.82M0.177734 654.738H1365.82M0.177734 640.519H1365.82M0.177734 626.3H1365.82M0.177734 612.08H1365.82M0.177734 597.862H1365.82M0.177734 583.643H1365.82M0.177734 569.425H1365.82M0.177734 555.206H1365.82M0.177734 540.987H1365.82M0.177734 526.768H1365.82M0.177734 512.549H1365.82M0.177734 498.33H1365.82M0.177734 484.111H1365.82M0.177734 469.892H1365.82M0.177734 455.671H1365.82M0.177734 441.455H1365.82M0.177734 427.236H1365.82M0.177734 413.017H1365.82M0.177734 398.798H1365.82M0.177734 384.579H1365.82M0.177734 370.36H1365.82M0.177734 356.142H1365.82M0.177734 341.923H1365.82M0.177734 327.704H1365.82M0.177734 313.487H1365.82M0.177734 299.266H1365.82M0.177734 285.046H1365.82M0.177734 270.828H1365.82M0.177734 256.609H1365.82M0.177734 242.391H1365.82M0.177734 228.171H1365.82M0.177734 213.952H1365.82M0.177734 199.734H1365.82M0.177734 185.515H1365.82M0.177734 171.296H1365.82M0.177734 157.078H1365.82M0.177734 142.859H1365.82M0.177734 128.639H1365.82M0.177734 114.42H1365.82M0.177734 100.201H1365.82M0.177734 85.9831H1365.82M0.177734 71.7633H1365.82M0.177734 57.545H1365.82M0.177734 43.3259H1365.82M0.177734 29.1076H1365.82M0.177734 14.8878H1365.82M1348.54 0.669434V725.832M1331.25 0.669434V725.832M1313.96 0.669434V725.832M1296.68 0.669434V725.832M1279.39 0.669434V725.832M1262.1 0.669434V725.832M1244.82 0.669434V725.832M1227.53 0.669434V725.832M1210.24 0.669434V725.832M1192.96 0.669434V725.832M1175.67 0.669434V725.832M1158.38 0.669434V725.832M1141.1 0.669434V725.832M1123.81 0.669434V725.832M1106.52 0.669434V725.832M1089.24 0.669434V725.832M1071.95 0.669434V725.832M1054.66 0.669434V725.832M1037.38 0.669434V725.832M1020.09 0.669434V725.832M1002.8 0.669434V725.832M985.517 0.669434V725.832M968.23 0.669434V725.832M950.943 0.669434V725.832M933.656 0.669434V725.832M916.369 0.669434V725.832M899.085 0.669434V725.832M881.797 0.669434V725.832M864.51 0.669434V725.832M847.223 0.669434V725.832M829.936 0.669434V725.832M812.649 0.669434V725.832M795.363 0.669434V725.832M778.077 0.669434V725.832M760.79 0.669434V725.832M743.503 0.669434V725.832M726.217 0.669434V725.832M708.93 0.669434V725.832M691.643 0.669434V725.832M674.357 0.669434V725.832M657.07 0.669434V725.832M639.783 0.669434V725.832M622.497 0.669434V725.832M605.21 0.669434V725.832M587.923 0.669434V725.832M570.637 0.669434V725.832M553.35 0.669434V725.832M536.064 0.669434V725.832M518.777 0.669434V725.832M501.49 0.669434V725.832M484.203 0.669434V725.832M466.915 0.669434V725.832M449.631 0.669434V725.832M432.344 0.669434V725.832M415.057 0.669434V725.832M397.77 0.669434V725.832M380.483 0.669434V725.832M363.197 0.669434V725.832M345.911 0.669434V725.832M328.624 0.669434V725.832M311.337 0.669434V725.832M294.051 0.669434V725.832M276.764 0.669434V725.832M259.477 0.669434V725.832M242.191 0.669434V725.832M224.904 0.669434V725.832M207.618 0.669434V725.832M190.331 0.669434V725.832M173.044 0.669434V725.832M155.757 0.669434V725.832M138.471 0.669434V725.832M121.184 0.669434V725.832M103.898 0.669434V725.832M86.6109 0.669434V725.832M69.3241 0.669434V725.832M52.0374 0.669434V725.832M34.7513 0.669434V725.832M17.4617 0.669434V725.832M0.177734 0.669434H1365.82V725.832H0.177734V0.669434Z" stroke="#E1E1E1"/>
</svg>
